Sintony-Regular.otf.ufo
<glyph name="quotesingle" format="1">
  <advance width="236"/>
  <unicode hex="0027"/>
  <outline>
    <contour>
      <point x="72" y="730" type="line" name="hr00"/>
      <point x="72" y="676" type="line"/>
      <point x="92" y="485" type="line"/>
      <point x="144" y="485" type="line"/>
      <point x="164" y="676" type="line"/>
      <point x="164" y="730" type="line"/>
    </contour>
  </outline>
</glyph>
<glyph name="parenleft" format="1">
  <advance width="300"/>
  <unicode hex="0028"/>
  <outline>
    <contour>
      <point x="294" y="4" type="line" name="hr00"/>
      <point x="193" y="4" smooth="yes"/>
      <point x="151" y="102" smooth="yes"/>
      <point x="151" y="335" type="curve" smooth="yes"/>
      <point x="151" y="567"/>
      <point x="193" y="665"/>
      <point x="294" y="665" type="curve"/>
      <point x="294" y="735" type="line"/>
      <point x="129" y="735" smooth="yes"/>
      <point x="58" y="614" smooth="yes"/>
      <point x="58" y="335" type="curve" smooth="yes"/>
      <point x="58" y="54"/>
      <point x="129" y="-66"/>
      <point x="294" y="-66" type="curve"/>
    </contour>
  </outline>
</glyph>
<glyph name="parenright" format="1">
  <advance width="300"/>
  <unicode hex="0029"/>
  <outline>
    <contour>
      <point x="6" y="665" type="line" name="hr00"/>
      <point x="107" y="665" smooth="yes"/>
      <point x="149" y="567" smooth="yes"/>
      <point x="149" y="334" type="curve" smooth="yes"/>
      <point x="149" y="102"/>
      <point x="107" y="4"/>
      <point x="6" y="4" type="curve"/>
      <point x="6" y="-66" type="line"/>
      <point x="171" y="-66" smooth="yes"/>
      <point x="242" y="55" smooth="yes"/>
      <point x="242" y="334" type="curve" smooth="yes"/>
      <point x="242" y="615"/>
      <point x="171" y="735"/>
      <point x="6" y="735" type="curve"/>
    </contour>
  </outline>
</glyph>
<glyph name="asterisk" format="1">
  <advance width="553"/>
  <unicode hex="002A"/>
  <outline>
    <contour>
      <point x="231" y="779" type="line" name="hr00"/>
      <point x="231" y="696" type="line"/>
      <point x="263" y="577" type="line"/>
      <point x="291" y="577" type="line"/>
      <point x="323" y="696" type="line"/>
      <point x="323" y="779" type="line"/>
    </contour>
    <contour>
      <point x="26" y="566" type="line"/>
      <point x="105" y="540" type="line"/>
      <point x="228" y="532" type="line"/>
      <point x="237" y="558" type="line"/>
      <point x="133" y="624" type="line"/>
      <point x="54" y="649" type="line"/>
    </contour>
    <contour>
      <point x="167" y="303" type="line"/>
      <point x="216" y="371" type="line"/>
      <point x="260" y="485" type="line"/>
      <point x="238" y="502" type="line"/>
      <point x="143" y="425" type="line"/>
      <point x="94" y="356" type="line"/>
    </contour>
    <contour>
      <point x="459" y="356" type="line"/>
      <point x="410" y="425" type="line"/>
      <point x="315" y="501" type="line"/>
      <point x="292" y="485" type="line"/>
      <point x="337" y="371" type="line"/>
      <point x="386" y="303" type="line"/>
    </contour>
    <contour>
      <point x="499" y="649" type="line"/>
      <point x="419" y="624" type="line"/>
      <point x="317" y="558" type="line"/>
      <point x="325" y="531" type="line"/>
      <point x="448" y="540" type="line"/>
      <point x="527" y="566" type="line"/>
    </contour>
  </outline>
</glyph>
<glyph name="plus" format="1">
  <advance width="580"/>
  <unicode hex="002B"/>
  <outline>
    <contour>
      <point x="92" y="284" type="line" name="hr00"/>
      <point x="256" y="284" type="line"/>
      <point x="256" y="120" type="line"/>
      <point x="324" y="120" type="line"/>
      <point x="324" y="284" type="line"/>
      <point x="488" y="284" type="line"/>
      <point x="488" y="352" type="line"/>
      <point x="324" y="352" type="line"/>
      <point x="324" y="516" type="line"/>
      <point x="256" y="516" type="line"/>
      <point x="256" y="352" type="line"/>
      <point x="92" y="352" type="line"/>
    </contour>
  </outline>
</glyph>
<glyph name="comma" format="1">
  <advance width="226"/>
  <unicode hex="002C"/>
  <outline>
    <contour>
      <point x="60" y="56" type="curve" smooth="yes" name="hr00"/>
      <point x="60" y="28" smooth="yes"/>
      <point x="74" y="6" smooth="yes"/>
      <point x="74" y="-15" type="curve" smooth="yes"/>
      <point x="74" y="-47"/>
      <point x="64" y="-66"/>
      <point x="33" y="-94" type="curve"/>
      <point x="59" y="-124" type="line"/>
      <point x="119" y="-80" smooth="yes"/>
      <point x="166" y="-1" smooth="yes"/>
      <point x="166" y="56" type="curve" smooth="yes"/>
      <point x="166" y="98" smooth="yes"/>
      <point x="150" y="115" smooth="yes"/>
      <point x="112" y="115" type="curve" smooth="yes"/>
      <point x="75" y="115" smooth="yes"/>
      <point x="60" y="98" smooth="yes"/>
    </contour>
  </outline>
</glyph>
<glyph name="period" format="1">
  <advance width="228"/>
  <unicode hex="002E"/>
  <outline>
    <contour>
      <point x="113" y="-8" type="curve" smooth="yes" name="hr00"/>
      <point x="152" y="-8" smooth="yes"/>
      <point x="168" y="10" smooth="yes"/>
      <point x="168" y="53" type="curve" smooth="yes"/>
      <point x="168" y="97" smooth="yes"/>
      <point x="152" y="115" smooth="yes"/>
      <point x="113" y="115" type="curve" smooth="yes"/>
      <point x="76" y="115" smooth="yes"/>
      <point x="60" y="97" smooth="yes"/>
      <point x="60" y="53" type="curve" smooth="yes"/>
      <point x="60" y="10" smooth="yes"/>
      <point x="75" y="-8" smooth="yes"/>
    </contour>
  </outline>
</glyph>
<glyph name="zero" format="1">
  <advance width="634"/>
  <unicode hex="0030"/>
  <outline>
    <contour>
      <point x="316" y="-14" type="curve" smooth="yes" name="hr00"/>
      <point x="491" y="-14" smooth="yes"/>
      <point x="573" y="107" smooth="yes"/>
      <point x="573" y="365" type="curve" smooth="yes"/>
      <point x="573" y="623" smooth="yes"/>
      <point x="491" y="744" smooth="yes"/>
      <point x="316" y="744" type="curve" smooth="yes"/>
      <point x="142" y="744" smooth="yes"/>
      <point x="60" y="623" smooth="yes"/>
      <point x="60" y="365" type="curve" smooth="yes"/>
      <point x="60" y="107" smooth="yes"/>
      <point x="142" y="-14" smooth="yes"/>
    </contour>
    <contour>
      <point x="316" y="56" type="curve" smooth="yes"/>
      <point x="197" y="56" smooth="yes"/>
      <point x="146" y="149" smooth="yes"/>
      <point x="146" y="365" type="curve" smooth="yes"/>
      <point x="146" y="580" smooth="yes"/>
      <point x="198" y="673" smooth="yes"/>
      <point x="316" y="673" type="curve" smooth="yes"/>
      <point x="436" y="673" smooth="yes"/>
      <point x="488" y="579" smooth="yes"/>
      <point x="488" y="365" type="curve" smooth="yes"/>
      <point x="488" y="150" smooth="yes"/>
      <point x="436" y="56" smooth="yes"/>
    </contour>
  </outline>
</glyph>
<glyph name="one" format="1">
  <advance width="634"/>
  <unicode hex="0031"/>
  <outline>
    <contour>
      <point x="146" y="621" type="line" name="hr00"/>
      <point x="293" y="621" type="line"/>
      <point x="293" y="71" type="line"/>
      <point x="142" y="71" type="line"/>
      <point x="142" y="0" type="line"/>
      <point x="533" y="0" type="line"/>
      <point x="533" y="71" type="line"/>
      <point x="381" y="71" type="line"/>
      <point x="381" y="730" type="line"/>
      <point x="316" y="730" type="line"/>
      <point x="277" y="702"/>
      <point x="216" y="682"/>
      <point x="146" y="675" type="curve"/>
    </contour>
  </outline>
</glyph>
<glyph name="two" format="1">
  <advance width="634"/>
  <unicode hex="0032"/>
  <outline>
    <contour>
      <point x="171" y="545" type="line" name="hr00"/>
      <point x="176" y="631" smooth="yes"/>
      <point x="224" y="673" smooth="yes"/>
      <point x="317" y="673" type="curve" smooth="yes"/>
      <point x="408" y="673" smooth="yes"/>
      <point x="459" y="629" smooth="yes"/>
      <point x="459" y="550" type="curve" smooth="yes"/>
      <point x="459" y="495" smooth="yes"/>
      <point x="435" y="450" smooth="yes"/>
      <point x="362" y="372" type="curve" smooth="yes"/>
      <point x="80" y="67" type="line"/>
      <point x="80" y="0" type="line"/>
      <point x="553" y="0" type="line"/>
      <point x="553" y="71" type="line"/>
      <point x="197" y="71" type="line"/>
      <point x="418" y="308" type="line" smooth="yes"/>
      <point x="507" y="404" smooth="yes"/>
      <point x="545" y="475" smooth="yes"/>
      <point x="545" y="548" type="curve" smooth="yes"/>
      <point x="545" y="672" smooth="yes"/>
      <point x="463" y="744" smooth="yes"/>
      <point x="319" y="744" type="curve" smooth="yes"/>
      <point x="183" y="744"/>
      <point x="105" y="679"/>
      <point x="95" y="557" type="curve"/>
    </contour>
  </outline>
</glyph>
<glyph name="three" format="1">
  <advance width="634"/>
  <unicode hex="0033"/>
  <outline>
    <contour>
      <point x="71" y="165" type="line" name="hr00"/>
      <point x="83" y="47" smooth="yes"/>
      <point x="163" y="-14" smooth="yes"/>
      <point x="307" y="-14" type="curve" smooth="yes"/>
      <point x="462" y="-14" smooth="yes"/>
      <point x="555" y="60" smooth="yes"/>
      <point x="555" y="183" type="curve" smooth="yes"/>
      <point x="555" y="271"/>
      <point x="512" y="335"/>
      <point x="434" y="364" type="curve"/>
      <point x="504" y="396" smooth="yes"/>
      <point x="546" y="458" smooth="yes"/>
      <point x="546" y="532" type="curve" smooth="yes"/>
      <point x="546" y="667" smooth="yes"/>
      <point x="459" y="744" smooth="yes"/>
      <point x="307" y="744" type="curve" smooth="yes"/>
      <point x="173" y="744"/>
      <point x="93" y="676"/>
      <point x="84" y="554" type="curve"/>
      <point x="159" y="544" type="line"/>
      <point x="165" y="627" smooth="yes"/>
      <point x="218" y="673" smooth="yes"/>
      <point x="306" y="673" type="curve" smooth="yes"/>
      <point x="406" y="673" smooth="yes"/>
      <point x="460" y="624" smooth="yes"/>
      <point x="460" y="533" type="curve" smooth="yes"/>
      <point x="460" y="447" smooth="yes"/>
      <point x="406" y="394" smooth="yes"/>
      <point x="321" y="394" type="curve" smooth="yes"/>
      <point x="229" y="394" type="line"/>
      <point x="229" y="328" type="line"/>
      <point x="320" y="328" type="line" smooth="yes"/>
      <point x="418" y="328" smooth="yes"/>
      <point x="470" y="278" smooth="yes"/>
      <point x="470" y="184" type="curve" smooth="yes"/>
      <point x="470" y="102" smooth="yes"/>
      <point x="412" y="57" smooth="yes"/>
      <point x="306" y="57" type="curve" smooth="yes"/>
      <point x="212" y="57"/>
      <point x="156" y="98"/>
      <point x="147" y="174" type="curve"/>
    </contour>
  </outline>
</glyph>
<glyph name="five" format="1">
  <advance width="634"/>
  <unicode hex="0035"/>
  <outline>
    <contour>
      <point x="98" y="191" type="line" name="hr00"/>
      <point x="106" y="57" smooth="yes"/>
      <point x="185" y="-14" smooth="yes"/>
      <point x="327" y="-14" type="curve" smooth="yes"/>
      <point x="478" y="-14" smooth="yes"/>
      <point x="573" y="74" smooth="yes"/>
      <point x="573" y="214" type="curve" smooth="yes"/>
      <point x="573" y="366" smooth="yes"/>
      <point x="465" y="439" smooth="yes"/>
      <point x="240" y="439" type="curve" smooth="yes"/>
      <point x="193" y="439" type="line"/>
      <point x="208" y="659" type="line"/>
      <point x="531" y="659" type="line"/>
      <point x="531" y="730" type="line"/>
      <point x="135" y="730" type="line"/>
      <point x="112" y="367" type="line"/>
      <point x="232" y="367" type="line" smooth="yes"/>
      <point x="407" y="367" smooth="yes"/>
      <point x="486" y="320" smooth="yes"/>
      <point x="486" y="214" type="curve" smooth="yes"/>
      <point x="486" y="114" smooth="yes"/>
      <point x="428" y="56" smooth="yes"/>
      <point x="327" y="56" type="curve" smooth="yes"/>
      <point x="231" y="56"/>
      <point x="179" y="104"/>
      <point x="174" y="198" type="curve"/>
    </contour>
  </outline>
</glyph>
<glyph name="six" format="1">
  <advance width="634"/>
  <unicode hex="0036"/>
  <outline>
    <contour>
      <point x="564" y="544" type="line" name="hr00"/>
      <point x="555" y="678" smooth="yes"/>
      <point x="478" y="744" smooth="yes"/>
      <point x="330" y="744" type="curve" smooth="yes"/>
      <point x="161" y="744" smooth="yes"/>
      <point x="81" y="614" smooth="yes"/>
      <point x="81" y="339" type="curve" smooth="yes"/>
      <point x="81" y="102" smooth="yes"/>
      <point x="165" y="-14" smooth="yes"/>
      <point x="339" y="-14" type="curve" smooth="yes"/>
      <point x="494" y="-14" smooth="yes"/>
      <point x="580" y="69" smooth="yes"/>
      <point x="581" y="219" type="curve" smooth="yes"/>
      <point x="581" y="351" smooth="yes"/>
      <point x="497" y="420" smooth="yes"/>
      <point x="336" y="420" type="curve" smooth="yes"/>
      <point x="285" y="420"/>
      <point x="222" y="410"/>
      <point x="167" y="394" type="curve"/>
      <point x="172" y="588" smooth="yes"/>
      <point x="222" y="673" smooth="yes"/>
      <point x="332" y="673" type="curve" smooth="yes"/>
      <point x="433" y="673"/>
      <point x="484" y="629"/>
      <point x="489" y="536" type="curve"/>
    </contour>
    <contour>
      <point x="330" y="353" type="curve" smooth="yes"/>
      <point x="436" y="353" smooth="yes"/>
      <point x="495" y="305" smooth="yes"/>
      <point x="495" y="219" type="curve" smooth="yes"/>
      <point x="495" y="111" smooth="yes"/>
      <point x="441" y="56" smooth="yes"/>
      <point x="335" y="56" type="curve" smooth="yes"/>
      <point x="220" y="56"/>
      <point x="172" y="135"/>
      <point x="167" y="328" type="curve"/>
      <point x="227" y="346" smooth="yes"/>
      <point x="271" y="353" smooth="yes"/>
    </contour>
  </outline>
</glyph>
<glyph name="seven" format="1">
  <advance width="634"/>
  <unicode hex="0037"/>
  <outline>
    <contour>
      <point x="268" y="0" type="line" name="hr00"/>
      <point x="554" y="664" type="line"/>
      <point x="554" y="730" type="line"/>
      <point x="81" y="730" type="line"/>
      <point x="81" y="659" type="line"/>
      <point x="460" y="659" type="line"/>
      <point x="174" y="0" type="line"/>
    </contour>
  </outline>
</glyph>
<glyph name="eight" format="1">
  <advance width="634"/>
  <unicode hex="0038"/>
  <outline>
    <contour>
      <point x="70" y="186" type="curve" smooth="yes" name="hr00"/>
      <point x="70" y="65" smooth="yes"/>
      <point x="169" y="-14" smooth="yes"/>
      <point x="318" y="-14" type="curve" smooth="yes"/>
      <point x="467" y="-14" smooth="yes"/>
      <point x="565" y="66" smooth="yes"/>
      <point x="565" y="186" type="curve" smooth="yes"/>
      <point x="565" y="278"/>
      <point x="525" y="338"/>
      <point x="443" y="370" type="curve"/>
      <point x="517" y="402" smooth="yes"/>
      <point x="555" y="458" smooth="yes"/>
      <point x="555" y="534" type="curve" smooth="yes"/>
      <point x="555" y="663" smooth="yes"/>
      <point x="463" y="744" smooth="yes"/>
      <point x="318" y="744" type="curve" smooth="yes"/>
      <point x="172" y="744" smooth="yes"/>
      <point x="80" y="663" smooth="yes"/>
      <point x="80" y="534" type="curve" smooth="yes"/>
      <point x="80" y="452"/>
      <point x="117" y="395"/>
      <point x="191" y="364" type="curve"/>
      <point x="111" y="331" smooth="yes"/>
      <point x="70" y="271" smooth="yes"/>
    </contour>
    <contour>
      <point x="363" y="326" type="line" smooth="yes"/>
      <point x="444" y="313" smooth="yes"/>
      <point x="480" y="269" smooth="yes"/>
      <point x="480" y="186" type="curve" smooth="yes"/>
      <point x="480" y="108" smooth="yes"/>
      <point x="416" y="57" smooth="yes"/>
      <point x="317" y="57" type="curve" smooth="yes"/>
      <point x="218" y="57" smooth="yes"/>
      <point x="156" y="107" smooth="yes"/>
      <point x="156" y="186" type="curve" smooth="yes"/>
      <point x="156" y="271"/>
      <point x="202" y="326"/>
      <point x="284" y="339" type="curve"/>
    </contour>
    <contour>
      <point x="165" y="532" type="curve" smooth="yes"/>
      <point x="165" y="621" smooth="yes"/>
      <point x="222" y="673" smooth="yes"/>
      <point x="318" y="673" type="curve" smooth="yes"/>
      <point x="414" y="673" smooth="yes"/>
      <point x="470" y="621" smooth="yes"/>
      <point x="470" y="532" type="curve" smooth="yes"/>
      <point x="470" y="458"/>
      <point x="424" y="407"/>
      <point x="344" y="393" type="curve"/>
      <point x="283" y="403" type="line" smooth="yes"/>
      <point x="201" y="416" smooth="yes"/>
      <point x="165" y="455" smooth="yes"/>
    </contour>
  </outline>
</glyph>
<glyph name="less" format="1">
  <advance width="580"/>
  <unicode hex="003C"/>
  <outline>
    <contour>
      <point x="89" y="274" type="line" name="hr00"/>
      <point x="491" y="105" type="line"/>
      <point x="491" y="180" type="line"/>
      <point x="155" y="317" type="line"/>
      <point x="491" y="454" type="line"/>
      <point x="491" y="529" type="line"/>
      <point x="89" y="360" type="line"/>
    </contour>
  </outline>
</glyph>
<glyph name="greater" format="1">
  <advance width="580"/>
  <unicode hex="003E"/>
  <outline>
    <contour>
      <point x="491" y="360" type="line" name="hr00"/>
      <point x="89" y="529" type="line"/>
      <point x="89" y="454" type="line"/>
      <point x="425" y="317" type="line"/>
      <point x="89" y="180" type="line"/>
      <point x="89" y="105" type="line"/>
      <point x="491" y="274" type="line"/>
    </contour>
  </outline>
</glyph>
<glyph name="at" format="1">
  <advance width="1024"/>
  <unicode hex="0040"/>
  <outline>
    <contour>
      <point x="681" y="-95" type="line" name="hr00"/>
      <point x="681" y="-30" type="line"/>
      <point x="514" y="-30" type="line" smooth="yes"/>
      <point x="267" y="-30" smooth="yes"/>
      <point x="170" y="71" smooth="yes"/>
      <point x="170" y="328" type="curve" smooth="yes"/>
      <point x="170" y="570" smooth="yes"/>
      <point x="281" y="686" smooth="yes"/>
      <point x="514" y="686" type="curve" smooth="yes"/>
      <point x="739" y="686" smooth="yes"/>
      <point x="859" y="574" smooth="yes"/>
      <point x="859" y="365" type="curve" smooth="yes"/>
      <point x="859" y="239" smooth="yes"/>
      <point x="814" y="185" smooth="yes"/>
      <point x="708" y="185" type="curve" smooth="yes"/>
      <point x="681" y="185" type="line"/>
      <point x="681" y="565" type="line"/>
      <point x="649" y="565" type="line"/>
      <point x="624" y="529" type="line"/>
      <point x="578" y="552" smooth="yes"/>
      <point x="526" y="565" smooth="yes"/>
      <point x="479" y="565" type="curve" smooth="yes"/>
      <point x="356" y="565" smooth="yes"/>
      <point x="294" y="489" smooth="yes"/>
      <point x="294" y="340" type="curve" smooth="yes"/>
      <point x="294" y="192" smooth="yes"/>
      <point x="346" y="115" smooth="yes"/>
      <point x="447" y="115" type="curve" smooth="yes"/>
      <point x="502" y="115"/>
      <point x="558" y="140"/>
      <point x="607" y="186" type="curve"/>
      <point x="630" y="125" type="line"/>
      <point x="710" y="125" type="line" smooth="yes"/>
      <point x="862" y="125" smooth="yes"/>
      <point x="938" y="205" smooth="yes"/>
      <point x="938" y="365" type="curve" smooth="yes"/>
      <point x="938" y="608" smooth="yes"/>
      <point x="781" y="751" smooth="yes"/>
      <point x="514" y="751" type="curve" smooth="yes"/>
      <point x="233" y="751" smooth="yes"/>
      <point x="86" y="606" smooth="yes"/>
      <point x="86" y="328" type="curve" smooth="yes"/>
      <point x="86" y="34" smooth="yes"/>
      <point x="217" y="-95" smooth="yes"/>
      <point x="514" y="-95" type="curve" smooth="yes"/>
    </contour>
    <contour>
      <point x="473" y="176" type="curve" smooth="yes"/>
      <point x="407" y="176" smooth="yes"/>
      <point x="372" y="233" smooth="yes"/>
      <point x="372" y="340" type="curve" smooth="yes"/>
      <point x="372" y="451" smooth="yes"/>
      <point x="411" y="504" smooth="yes"/>
      <point x="494" y="504" type="curve" smooth="yes"/>
      <point x="528" y="504"/>
      <point x="568" y="495"/>
      <point x="603" y="479" type="curve"/>
      <point x="603" y="240" type="line"/>
      <point x="561" y="196" smooth="yes"/>
      <point x="520" y="176" smooth="yes"/>
    </contour>
  </outline>
</glyph>
<glyph name="A" format="1">
  <advance width="628"/>
  <unicode hex="0041"/>
  <outline>
    <contour>
      <point x="255" y="730" type="line" name="hr00"/>
      <point x="17" y="0" type="line"/>
      <point x="104" y="0" type="line"/>
      <point x="175" y="220" type="line"/>
      <point x="453" y="220" type="line"/>
      <point x="524" y="0" type="line"/>
      <point x="611" y="0" type="line"/>
      <point x="372" y="730" type="line"/>
    </contour>
    <contour>
      <point x="314" y="652" type="line"/>
      <point x="430" y="290" type="line"/>
      <point x="197" y="290" type="line"/>
    </contour>
  </outline>
</glyph>
<glyph name="B" format="1">
  <advance width="613"/>
  <unicode hex="0042"/>
  <outline>
    <contour>
      <point x="344" y="0" type="line" smooth="yes"/>
      <point x="490" y="0" smooth="yes"/>
      <point x="567" y="68" smooth="yes"/>
      <point x="567" y="195" type="curve" smooth="yes"/>
      <point x="567" y="294"/>
      <point x="518" y="357"/>
      <point x="424" y="378" type="curve"/>
      <point x="493" y="403" smooth="yes"/>
      <point x="529" y="459" smooth="yes"/>
      <point x="529" y="543" type="curve" smooth="yes" name="hr01"/>
      <point x="529" y="665" smooth="yes"/>
      <point x="451" y="730" smooth="yes"/>
      <point x="306" y="730" type="curve" smooth="yes"/>
      <point x="106" y="730" type="line"/>
      <point x="106" y="0" type="line"/>
    </contour>
    <contour>
      <point x="194" y="70" type="line"/>
      <point x="194" y="338" type="line"/>
      <point x="343" y="338" type="line" smooth="yes"/>
      <point x="430" y="338" smooth="yes"/>
      <point x="479" y="289" smooth="yes"/>
      <point x="479" y="202" type="curve" smooth="yes"/>
      <point x="479" y="116" smooth="yes"/>
      <point x="431" y="70" smooth="yes"/>
      <point x="343" y="70" type="curve" smooth="yes"/>
    </contour>
    <contour>
      <point x="194" y="409" type="line"/>
      <point x="194" y="660" type="line"/>
      <point x="305" y="660" type="line" smooth="yes"/>
      <point x="393" y="660" smooth="yes"/>
      <point x="441" y="616" smooth="yes"/>
      <point x="441" y="534" type="curve" smooth="yes" name="hr02"/>
      <point x="441" y="453" smooth="yes"/>
      <point x="393" y="409" smooth="yes"/>
      <point x="305" y="409" type="curve" smooth="yes"/>
    </contour>
  </outline>
</glyph>
<glyph name="C" format="1">
  <advance width="638"/>
  <unicode hex="0043"/>
  <outline>
    <contour>
      <point x="582" y="553" type="line" name="hr00"/>
      <point x="565" y="683" smooth="yes"/>
      <point x="492" y="744" smooth="yes"/>
      <point x="355" y="744" type="curve" smooth="yes"/>
      <point x="153" y="744" smooth="yes"/>
      <point x="74" y="637" smooth="yes"/>
      <point x="74" y="366" type="curve" smooth="yes"/>
      <point x="74" y="94" smooth="yes"/>
      <point x="154" y="-14" smooth="yes"/>
      <point x="355" y="-14" type="curve" smooth="yes"/>
      <point x="501" y="-14"/>
      <point x="575" y="60"/>
      <point x="586" y="218" type="curve"/>
      <point x="514" y="222" type="line"/>
      <point x="510" y="114" smooth="yes"/>
      <point x="455" y="58" smooth="yes"/>
      <point x="355" y="58" type="curve" smooth="yes"/>
      <point x="211" y="58" smooth="yes"/>
      <point x="162" y="137" smooth="yes"/>
      <point x="162" y="366" type="curve" smooth="yes"/>
      <point x="162" y="593" smooth="yes"/>
      <point x="212" y="672" smooth="yes"/>
      <point x="355" y="672" type="curve" smooth="yes"/>
      <point x="444" y="672"/>
      <point x="497" y="627"/>
      <point x="511" y="540" type="curve"/>
    </contour>
  </outline>
</glyph>
<glyph name="F" format="1">
  <advance width="518"/>
  <unicode hex="0046"/>
  <outline>
    <contour>
      <point x="106" y="730" type="line" name="hr00"/>
      <point x="106" y="0" type="line"/>
      <point x="194" y="0" type="line"/>
      <point x="194" y="336" type="line"/>
      <point x="451" y="336" type="line"/>
      <point x="451" y="406" type="line"/>
      <point x="194" y="406" type="line"/>
      <point x="194" y="660" type="line"/>
      <point x="474" y="660" type="line"/>
      <point x="474" y="730" type="line"/>
    </contour>
  </outline>
</glyph>
<glyph name="J" format="1">
  <advance width="467"/>
  <unicode hex="004A"/>
  <outline>
    <contour>
      <point x="376" y="730" type="line" name="hr00"/>
      <point x="288" y="730" type="line"/>
      <point x="288" y="183" type="line" smooth="yes"/>
      <point x="288" y="85" smooth="yes"/>
      <point x="267" y="58" smooth="yes"/>
      <point x="192" y="58" type="curve" smooth="yes"/>
      <point x="116" y="58"/>
      <point x="92" y="89"/>
      <point x="92" y="189" type="curve"/>
      <point x="16" y="189" type="line"/>
      <point x="16" y="36" smooth="yes"/>
      <point x="59" y="-14" smooth="yes"/>
      <point x="189" y="-14" type="curve" smooth="yes"/>
      <point x="326" y="-14" smooth="yes"/>
      <point x="376" y="39" smooth="yes"/>
      <point x="376" y="183" type="curve" smooth="yes"/>
    </contour>
  </outline>
</glyph>
<glyph name="K" format="1">
  <advance width="598"/>
  <unicode hex="004B"/>
  <outline>
    <contour>
      <point x="584" y="0" type="line" name="hr00"/>
      <point x="339" y="368" type="line"/>
      <point x="570" y="730" type="line"/>
      <point x="478" y="730" type="line"/>
      <point x="273" y="405" type="line"/>
      <point x="194" y="405" type="line"/>
      <point x="194" y="730" type="line"/>
      <point x="106" y="730" type="line"/>
      <point x="106" y="0" type="line"/>
      <point x="194" y="0" type="line"/>
      <point x="194" y="335" type="line"/>
      <point x="267" y="335" type="line"/>
      <point x="489" y="0" type="line"/>
    </contour>
  </outline>
</glyph>
<glyph name="L" format="1">
  <advance width="482"/>
  <unicode hex="004C"/>
  <outline>
    <contour>
      <point x="106" y="0" type="line" name="hr00"/>
      <point x="466" y="0" type="line"/>
      <point x="466" y="70" type="line"/>
      <point x="194" y="70" type="line"/>
      <point x="194" y="730" type="line"/>
      <point x="106" y="730" type="line"/>
    </contour>
  </outline>
</glyph>
<glyph name="M" format="1">
  <advance width="877"/>
  <unicode hex="004D"/>
  <outline>
    <contour>
      <point x="642" y="730" type="line" name="hr00"/>
      <point x="432" y="171" type="line"/>
      <point x="235" y="730" type="line"/>
      <point x="116" y="730" type="line"/>
      <point x="96" y="0" type="line"/>
      <point x="182" y="0" type="line"/>
      <point x="197" y="609" type="line"/>
      <point x="391" y="62" type="line"/>
      <point x="471" y="62" type="line"/>
      <point x="680" y="615" type="line"/>
      <point x="695" y="0" type="line"/>
      <point x="781" y="0" type="line"/>
      <point x="762" y="730" type="line"/>
    </contour>
  </outline>
</glyph>
<glyph name="N" format="1">
  <advance width="744"/>
  <unicode hex="004E"/>
  <outline>
    <contour>
      <point x="550" y="730" type="line" name="hr00"/>
      <point x="550" y="147" type="line"/>
      <point x="202" y="730" type="line"/>
      <point x="106" y="730" type="line"/>
      <point x="106" y="0" type="line"/>
      <point x="194" y="0" type="line"/>
      <point x="194" y="582" type="line"/>
      <point x="542" y="0" type="line"/>
      <point x="638" y="0" type="line"/>
      <point x="638" y="730" type="line"/>
    </contour>
  </outline>
</glyph>
<glyph name="O" format="1">
  <advance width="721"/>
  <unicode hex="004F"/>
  <outline>
    <contour>
      <point x="360" y="-14" type="curve" smooth="yes" name="hr00"/>
      <point x="557" y="-14" smooth="yes"/>
      <point x="647" y="105" smooth="yes"/>
      <point x="647" y="365" type="curve" smooth="yes"/>
      <point x="647" y="624" smooth="yes"/>
      <point x="556" y="744" smooth="yes"/>
      <point x="360" y="744" type="curve" smooth="yes"/>
      <point x="164" y="744" smooth="yes"/>
      <point x="74" y="625" smooth="yes"/>
      <point x="74" y="365" type="curve" smooth="yes"/>
      <point x="74" y="104" smooth="yes"/>
      <point x="163" y="-14" smooth="yes"/>
    </contour>
    <contour>
      <point x="360" y="58" type="curve" smooth="yes"/>
      <point x="225" y="58" smooth="yes"/>
      <point x="162" y="155" smooth="yes"/>
      <point x="162" y="365" type="curve" smooth="yes"/>
      <point x="162" y="575" smooth="yes"/>
      <point x="225" y="672" smooth="yes"/>
      <point x="360" y="672" type="curve" smooth="yes"/>
      <point x="495" y="672" smooth="yes"/>
      <point x="559" y="573" smooth="yes"/>
      <point x="559" y="365" type="curve" smooth="yes"/>
      <point x="559" y="157" smooth="yes"/>
      <point x="495" y="58" smooth="yes"/>
    </contour>
  </outline>
</glyph>
<glyph name="P" format="1">
  <advance width="589"/>
  <unicode hex="0050"/>
  <outline>
    <contour>
      <point x="321" y="271" type="line" smooth="yes" name="hr00"/>
      <point x="470" y="271" smooth="yes"/>
      <point x="547" y="349" smooth="yes"/>
      <point x="547" y="500" type="curve" smooth="yes"/>
      <point x="547" y="652" smooth="yes"/>
      <point x="470" y="730" smooth="yes"/>
      <point x="321" y="730" type="curve" smooth="yes"/>
      <point x="106" y="730" type="line"/>
      <point x="106" y="0" type="line"/>
      <point x="194" y="0" type="line"/>
      <point x="194" y="271" type="line"/>
    </contour>
    <contour>
      <point x="194" y="341" type="line"/>
      <point x="194" y="660" type="line"/>
      <point x="316" y="660" type="line" smooth="yes"/>
      <point x="411" y="660" smooth="yes"/>
      <point x="459" y="606" smooth="yes"/>
      <point x="459" y="500" type="curve" smooth="yes"/>
      <point x="459" y="394" smooth="yes"/>
      <point x="411" y="341" smooth="yes"/>
      <point x="316" y="341" type="curve" smooth="yes"/>
    </contour>
  </outline>
</glyph>
<glyph name="S" format="1">
  <advance width="598"/>
  <unicode hex="0053"/>
  <outline>
    <contour>
      <point x="280" y="415" type="line" smooth="yes" name="hr00"/>
      <point x="189" y="440" smooth="yes"/>
      <point x="159" y="472" smooth="yes"/>
      <point x="159" y="544" type="curve" smooth="yes"/>
      <point x="159" y="630" smooth="yes"/>
      <point x="211" y="673" smooth="yes"/>
      <point x="314" y="673" type="curve" smooth="yes"/>
      <point x="401" y="673"/>
      <point x="454" y="628"/>
      <point x="466" y="541" type="curve"/>
      <point x="538" y="554" type="line"/>
      <point x="518" y="684" smooth="yes"/>
      <point x="447" y="744" smooth="yes"/>
      <point x="313" y="744" type="curve" smooth="yes"/>
      <point x="163" y="744" smooth="yes"/>
      <point x="71" y="666" smooth="yes"/>
      <point x="71" y="540" type="curve" smooth="yes"/>
      <point x="71" y="423" smooth="yes"/>
      <point x="116" y="373" smooth="yes"/>
      <point x="258" y="334" type="curve" smooth="yes"/>
      <point x="324" y="315" type="line" smooth="yes"/>
      <point x="422" y="288" smooth="yes"/>
      <point x="454" y="256" smooth="yes"/>
      <point x="454" y="186" type="curve" smooth="yes"/>
      <point x="454" y="100" smooth="yes"/>
      <point x="399" y="57" smooth="yes"/>
      <point x="291" y="57" type="curve" smooth="yes"/>
      <point x="197" y="57"/>
      <point x="140" y="103"/>
      <point x="128" y="189" type="curve"/>
      <point x="56" y="176" type="line"/>
      <point x="75" y="47" smooth="yes"/>
      <point x="150" y="-14" smooth="yes"/>
      <point x="291" y="-14" type="curve" smooth="yes"/>
      <point x="447" y="-14" smooth="yes"/>
      <point x="542" y="63" smooth="yes"/>
      <point x="542" y="189" type="curve" smooth="yes"/>
      <point x="542" y="305" smooth="yes"/>
      <point x="497" y="354" smooth="yes"/>
      <point x="349" y="396" type="curve" smooth="yes"/>
    </contour>
  </outline>
</glyph>
<glyph name="U" format="1">
  <advance width="697"/>
  <unicode hex="0055"/>
  <outline>
    <contour>
      <point x="518" y="730" type="line" name="hr00"/>
      <point x="518" y="244" type="line" smooth="yes"/>
      <point x="518" y="118" smooth="yes"/>
      <point x="465" y="60" smooth="yes"/>
      <point x="348" y="60" type="curve" smooth="yes"/>
      <point x="233" y="60" smooth="yes"/>
      <point x="179" y="118" smooth="yes"/>
      <point x="179" y="244" type="curve" smooth="yes"/>
      <point x="179" y="730" type="line"/>
      <point x="91" y="730" type="line"/>
      <point x="91" y="241" type="line" smooth="yes"/>
      <point x="91" y="66" smooth="yes"/>
      <point x="172" y="-14" smooth="yes"/>
      <point x="348" y="-14" type="curve" smooth="yes"/>
      <point x="525" y="-14" smooth="yes"/>
      <point x="606" y="66" smooth="yes"/>
      <point x="606" y="241" type="curve" smooth="yes"/>
      <point x="606" y="730" type="line"/>
    </contour>
  </outline>
</glyph>
<glyph name="V" format="1">
  <advance width="612"/>
  <unicode hex="0056"/>
  <outline>
    <contour>
      <point x="365" y="0" type="line" name="hr00"/>
      <point x="587" y="730" type="line"/>
      <point x="498" y="730" type="line"/>
      <point x="306" y="83" type="line"/>
      <point x="115" y="730" type="line"/>
      <point x="25" y="730" type="line"/>
      <point x="248" y="0" type="line"/>
    </contour>
  </outline>
</glyph>
<glyph name="a" format="1">
  <advance width="586"/>
  <unicode hex="0061"/>
  <outline>
    <contour>
      <point x="155" y="409" type="line"/>
      <point x="168" y="478" smooth="yes"/>
      <point x="214" y="516" smooth="yes"/>
      <point x="286" y="516" type="curve" smooth="yes"/>
      <point x="367" y="516" smooth="yes"/>
      <point x="404" y="475" smooth="yes"/>
      <point x="404" y="386" type="curve" smooth="yes"/>
      <point x="404" y="329" type="line"/>
      <point x="255" y="305" type="line" smooth="yes"/>
      <point x="111" y="282" smooth="yes"/>
      <point x="53" y="232" smooth="yes"/>
      <point x="53" y="133" type="curve" smooth="yes"/>
      <point x="53" y="38" smooth="yes"/>
      <point x="105" y="-14" smooth="yes"/>
      <point x="200" y="-14" type="curve" smooth="yes"/>
      <point x="273" y="-14"/>
      <point x="349" y="23"/>
      <point x="411" y="89" type="curve"/>
      <point x="433" y="0" type="line" name="hr01"/>
      <point x="490" y="0" type="line"/>
      <point x="490" y="386" type="line" smooth="yes"/>
      <point x="490" y="523" smooth="yes"/>
      <point x="426" y="586" smooth="yes"/>
      <point x="288" y="586" type="curve" smooth="yes"/>
      <point x="179" y="586"/>
      <point x="107" y="531"/>
      <point x="85" y="430" type="curve"/>
    </contour>
    <contour>
      <point x="224" y="52" type="curve" smooth="yes" name="hr02"/>
      <point x="169" y="52" smooth="yes"/>
      <point x="138" y="82" smooth="yes"/>
      <point x="138" y="135" type="curve" smooth="yes"/>
      <point x="138" y="194" smooth="yes"/>
      <point x="177" y="230" smooth="yes"/>
      <point x="263" y="245" type="curve" smooth="yes"/>
      <point x="404" y="269" type="line"/>
      <point x="404" y="149" type="line"/>
      <point x="342" y="83" smooth="yes"/>
      <point x="286" y="52" smooth="yes"/>
    </contour>
  </outline>
</glyph>
<glyph name="b" format="1">
  <advance width="627"/>
  <unicode hex="0062"/>
  <outline>
    <contour>
      <point x="357" y="-14" type="curve" smooth="yes"/>
      <point x="499" y="-14" smooth="yes"/>
      <point x="573" y="88" smooth="yes"/>
      <point x="573" y="286" type="curve" smooth="yes"/>
      <point x="573" y="482" smooth="yes"/>
      <point x="498" y="586" smooth="yes"/>
      <point x="357" y="586" type="curve" smooth="yes"/>
      <point x="305" y="586"/>
      <point x="247" y="570"/>
      <point x="192" y="539" type="curve"/>
      <point x="192" y="768" type="line"/>
      <point x="106" y="758" type="line"/>
      <point x="106" y="0" type="line" name="hr01"/>
      <point x="157" y="0" type="line"/>
      <point x="176" y="47" type="line"/>
      <point x="230" y="9" smooth="yes"/>
      <point x="298" y="-14" smooth="yes"/>
    </contour>
    <contour>
      <point x="341" y="516" type="curve" smooth="yes"/>
      <point x="433" y="516" smooth="yes"/>
      <point x="487" y="431" smooth="yes"/>
      <point x="487" y="286" type="curve" smooth="yes"/>
      <point x="487" y="131" smooth="yes"/>
      <point x="437" y="56" smooth="yes"/>
      <point x="333" y="56" type="curve" smooth="yes"/>
      <point x="287" y="56"/>
      <point x="236" y="73"/>
      <point x="192" y="103" type="curve"/>
      <point x="192" y="473" type="line"/>
      <point x="241" y="502" smooth="yes"/>
      <point x="288" y="516" smooth="yes"/>
    </contour>
  </outline>
</glyph>
<glyph name="d" format="1">
  <advance width="627"/>
  <unicode hex="0064"/>
  <outline>
    <contour>
      <point x="464" y="0" type="line"/>
      <point x="521" y="0" type="line"/>
      <point x="521" y="768" type="line"/>
      <point x="435" y="758" type="line"/>
      <point x="435" y="547" type="line"/>
      <point x="382" y="572" smooth="yes"/>
      <point x="326" y="586" smooth="yes"/>
      <point x="277" y="586" type="curve" smooth="yes"/>
      <point x="129" y="586" smooth="yes"/>
      <point x="54" y="485" smooth="yes"/>
      <point x="54" y="286" type="curve" smooth="yes"/>
      <point x="54" y="88" smooth="yes"/>
      <point x="116" y="-14" smooth="yes"/>
      <point x="238" y="-14" type="curve" smooth="yes" name="hr01"/>
      <point x="308" y="-14"/>
      <point x="380" y="22"/>
      <point x="439" y="87" type="curve"/>
    </contour>
    <contour>
      <point x="266" y="56" type="curve" smooth="yes" name="hr03"/>
      <point x="184" y="56" smooth="yes"/>
      <point x="140" y="136" smooth="yes"/>
      <point x="140" y="286" type="curve" smooth="yes"/>
      <point x="140" y="443" smooth="yes"/>
      <point x="190" y="518" smooth="yes"/>
      <point x="294" y="518" type="curve" smooth="yes"/>
      <point x="337" y="518"/>
      <point x="389" y="504"/>
      <point x="435" y="479" type="curve"/>
      <point x="435" y="152" type="line"/>
      <point x="381" y="86" smooth="yes"/>
      <point x="328" y="56" smooth="yes"/>
    </contour>
  </outline>
</glyph>
<glyph name="g" format="1">
  <advance width="572"/>
  <unicode hex="0067"/>
  <outline>
    <contour>
      <point x="285" y="180" type="curve" smooth="yes"/>
      <point x="421" y="180" smooth="yes"/>
      <point x="497" y="253" smooth="yes"/>
      <point x="497" y="383" type="curve" smooth="yes"/>
      <point x="497" y="435"/>
      <point x="484" y="481"/>
      <point x="459" y="515" type="curve"/>
      <point x="530" y="515" type="line"/>
      <point x="530" y="572" type="line"/>
      <point x="379" y="572" type="line"/>
      <point x="352" y="581" smooth="yes"/>
      <point x="320" y="586" smooth="yes"/>
      <point x="285" y="586" type="curve" smooth="yes" name="hr01"/>
      <point x="150" y="586" smooth="yes"/>
      <point x="74" y="513" smooth="yes"/>
      <point x="74" y="383" type="curve" smooth="yes"/>
      <point x="74" y="318"/>
      <point x="92" y="265"/>
      <point x="127" y="232" type="curve"/>
      <point x="79" y="184" type="line" smooth="yes"/>
      <point x="51" y="156" smooth="yes"/>
      <point x="37" y="126" smooth="yes"/>
      <point x="37" y="94" type="curve" smooth="yes" name="hr02"/>
      <point x="37" y="52"/>
      <point x="56" y="23"/>
      <point x="94" y="8" type="curve"/>
      <point x="57" y="-19" smooth="yes"/>
      <point x="34" y="-60" smooth="yes"/>
      <point x="34" y="-99" type="curve" smooth="yes"/>
      <point x="34" y="-192" smooth="yes"/>
      <point x="107" y="-233" smooth="yes"/>
      <point x="272" y="-233" type="curve" smooth="yes"/>
      <point x="455" y="-233" smooth="yes"/>
      <point x="539" y="-182" smooth="yes"/>
      <point x="539" y="-72" type="curve" smooth="yes"/>
      <point x="539" y="12" smooth="yes"/>
      <point x="477" y="67" smooth="yes"/>
      <point x="383" y="67" type="curve" smooth="yes"/>
      <point x="159" y="67" type="line" smooth="yes"/>
      <point x="130" y="67" smooth="yes"/>
      <point x="113" y="80" smooth="yes"/>
      <point x="113" y="104" type="curve" smooth="yes"/>
      <point x="113" y="122" smooth="yes"/>
      <point x="121" y="140" smooth="yes"/>
      <point x="136" y="154" type="curve" smooth="yes"/>
      <point x="181" y="198" type="line"/>
      <point x="211" y="186" smooth="yes"/>
      <point x="246" y="180" smooth="yes"/>
    </contour>
    <contour>
      <point x="285" y="242" type="curve" smooth="yes"/>
      <point x="199" y="242" smooth="yes"/>
      <point x="157" y="289" smooth="yes"/>
      <point x="157" y="383" type="curve" smooth="yes" name="hr03"/>
      <point x="157" y="477" smooth="yes"/>
      <point x="199" y="524" smooth="yes"/>
      <point x="285" y="524" type="curve" smooth="yes"/>
      <point x="371" y="524" smooth="yes"/>
      <point x="414" y="477" smooth="yes"/>
      <point x="414" y="383" type="curve" smooth="yes"/>
      <point x="414" y="289" smooth="yes"/>
      <point x="371" y="242" smooth="yes"/>
    </contour>
    <contour>
      <point x="275" y="-164" type="curve" smooth="yes"/>
      <point x="163" y="-164" smooth="yes"/>
      <point x="115" y="-141" smooth="yes"/>
      <point x="115" y="-88" type="curve" smooth="yes" name="hr04"/>
      <point x="115" y="-55"/>
      <point x="131" y="-21"/>
      <point x="156" y="0" type="curve"/>
      <point x="356" y="0" type="line" smooth="yes"/>
      <point x="415" y="0" smooth="yes"/>
      <point x="451" y="-28" smooth="yes"/>
      <point x="451" y="-73" type="curve" smooth="yes"/>
      <point x="451" y="-142" smooth="yes"/>
      <point x="409" y="-164" smooth="yes"/>
    </contour>
  </outline>
</glyph>
<glyph name="h" format="1">
  <advance width="654"/>
  <unicode hex="0068"/>
  <outline>
    <contour>
      <point x="192" y="768" type="line" name="hr00"/>
      <point x="106" y="758" type="line"/>
      <point x="106" y="0" type="line"/>
      <point x="192" y="0" type="line"/>
      <point x="192" y="449" type="line"/>
      <point x="249" y="493" smooth="yes"/>
      <point x="310" y="516" smooth="yes"/>
      <point x="372" y="516" type="curve" smooth="yes"/>
      <point x="443" y="516" smooth="yes"/>
      <point x="472" y="484" smooth="yes"/>
      <point x="472" y="404" type="curve" smooth="yes"/>
      <point x="472" y="0" type="line"/>
      <point x="558" y="0" type="line"/>
      <point x="558" y="406" type="line" smooth="yes"/>
      <point x="558" y="530" smooth="yes"/>
      <point x="505" y="586" smooth="yes"/>
      <point x="389" y="586" type="curve" smooth="yes"/>
      <point x="324" y="586"/>
      <point x="252" y="562"/>
      <point x="192" y="519" type="curve"/>
    </contour>
  </outline>
</glyph>
<glyph name="j" format="1">
  <advance width="298"/>
  <unicode hex="006A"/>
  <outline>
    <contour>
      <point x="-71" y="-208" type="line" name="hr00"/>
      <point x="-40" y="-221" smooth="yes"/>
      <point x="-8" y="-226" smooth="yes"/>
      <point x="34" y="-226" type="curve" smooth="yes"/>
      <point x="138" y="-226" smooth="yes"/>
      <point x="192" y="-171" smooth="yes"/>
      <point x="192" y="-67" type="curve" smooth="yes"/>
      <point x="192" y="572" type="line"/>
      <point x="106" y="572" type="line"/>
      <point x="106" y="-67" type="line" smooth="yes"/>
      <point x="106" y="-129" smooth="yes"/>
      <point x="81" y="-158" smooth="yes"/>
      <point x="28" y="-158" type="curve" smooth="yes"/>
      <point x="-2" y="-158"/>
      <point x="-24" y="-154"/>
      <point x="-49" y="-143" type="curve"/>
    </contour>
    <contour>
      <point x="149" y="668" type="curve" smooth="yes"/>
      <point x="185" y="668" smooth="yes"/>
      <point x="202" y="686" smooth="yes"/>
      <point x="202" y="723" type="curve" smooth="yes"/>
      <point x="202" y="761" smooth="yes"/>
      <point x="185" y="779" smooth="yes"/>
      <point x="149" y="779" type="curve" smooth="yes"/>
      <point x="115" y="779" smooth="yes"/>
      <point x="98" y="761" smooth="yes"/>
      <point x="98" y="723" type="curve" smooth="yes"/>
      <point x="98" y="686" smooth="yes"/>
      <point x="115" y="668" smooth="yes"/>
    </contour>
  </outline>
</glyph>
<glyph name="p" format="1">
  <advance width="627"/>
  <unicode hex="0070"/>
  <outline>
    <contour>
      <point x="157" y="572" type="line"/>
      <point x="106" y="572" type="line"/>
      <point x="106" y="-234" type="line"/>
      <point x="192" y="-222" type="line"/>
      <point x="192" y="17" type="line"/>
      <point x="246" y="-3" smooth="yes"/>
      <point x="301" y="-14" smooth="yes"/>
      <point x="349" y="-14" type="curve" smooth="yes"/>
      <point x="497" y="-14" smooth="yes"/>
      <point x="573" y="87" smooth="yes"/>
      <point x="573" y="286" type="curve" smooth="yes"/>
      <point x="573" y="484" smooth="yes"/>
      <point x="499" y="586" smooth="yes"/>
      <point x="357" y="586" type="curve" smooth="yes" name="hr01"/>
      <point x="299" y="586"/>
      <point x="231" y="562"/>
      <point x="177" y="522" type="curve"/>
    </contour>
    <contour>
      <point x="341" y="516" type="curve" smooth="yes" name="hr03"/>
      <point x="434" y="516" smooth="yes"/>
      <point x="487" y="432" smooth="yes"/>
      <point x="487" y="286" type="curve" smooth="yes"/>
      <point x="487" y="132" smooth="yes"/>
      <point x="436" y="56" smooth="yes"/>
      <point x="333" y="56" type="curve" smooth="yes"/>
      <point x="278" y="56"/>
      <point x="235" y="64"/>
      <point x="192" y="82" type="curve"/>
      <point x="192" y="465" type="line"/>
      <point x="237" y="498" smooth="yes"/>
      <point x="291" y="516" smooth="yes"/>
    </contour>
  </outline>
</glyph>
<glyph name="r" format="1">
  <advance width="401"/>
  <unicode hex="0072"/>
  <outline>
    <contour>
      <point x="157" y="572" type="line"/>
      <point x="106" y="572" type="line"/>
      <point x="106" y="0" type="line"/>
      <point x="192" y="0" type="line"/>
      <point x="192" y="393" type="line"/>
      <point x="236" y="464"/>
      <point x="304" y="503"/>
      <point x="393" y="507" type="curve"/>
      <point x="393" y="586" type="line" name="hr01"/>
      <point x="302" y="583"/>
      <point x="234" y="544"/>
      <point x="188" y="470" type="curve"/>
    </contour>
  </outline>
</glyph>
<glyph name="s" format="1">
  <advance width="532"/>
  <unicode hex="0073"/>
  <outline>
    <contour>
      <point x="255" y="333" type="line" smooth="yes" name="hr00"/>
      <point x="176" y="352" smooth="yes"/>
      <point x="151" y="376" smooth="yes"/>
      <point x="151" y="427" type="curve" smooth="yes"/>
      <point x="151" y="488" smooth="yes"/>
      <point x="193" y="518" smooth="yes"/>
      <point x="277" y="518" type="curve" smooth="yes"/>
      <point x="351" y="518"/>
      <point x="396" y="483"/>
      <point x="405" y="417" type="curve"/>
      <point x="476" y="428" type="line"/>
      <point x="457" y="537" smooth="yes"/>
      <point x="396" y="586" smooth="yes"/>
      <point x="279" y="586" type="curve" smooth="yes"/>
      <point x="142" y="586" smooth="yes"/>
      <point x="65" y="528" smooth="yes"/>
      <point x="65" y="423" type="curve" smooth="yes"/>
      <point x="65" y="329" smooth="yes"/>
      <point x="106" y="285" smooth="yes"/>
      <point x="225" y="256" type="curve" smooth="yes"/>
      <point x="282" y="242" type="line" smooth="yes"/>
      <point x="369" y="220" smooth="yes"/>
      <point x="394" y="198" smooth="yes"/>
      <point x="394" y="148" type="curve" smooth="yes"/>
      <point x="394" y="87" smooth="yes"/>
      <point x="349" y="57" smooth="yes"/>
      <point x="259" y="57" type="curve" smooth="yes"/>
      <point x="179" y="57"/>
      <point x="132" y="92"/>
      <point x="122" y="158" type="curve"/>
      <point x="52" y="147" type="line"/>
      <point x="70" y="39" smooth="yes"/>
      <point x="135" y="-11" smooth="yes"/>
      <point x="258" y="-11" type="curve" smooth="yes"/>
      <point x="400" y="-11" smooth="yes"/>
      <point x="480" y="48" smooth="yes"/>
      <point x="480" y="152" type="curve" smooth="yes"/>
      <point x="480" y="244" smooth="yes"/>
      <point x="439" y="289" smooth="yes"/>
      <point x="313" y="319" type="curve" smooth="yes"/>
    </contour>
  </outline>
</glyph>
<glyph name="u" format="1">
  <advance width="660"/>
  <unicode hex="0075"/>
  <outline>
    <contour>
      <point x="497" y="0" type="line"/>
      <point x="554" y="0" type="line"/>
      <point x="554" y="572" type="line"/>
      <point x="468" y="572" type="line"/>
      <point x="468" y="155" type="line"/>
      <point x="412" y="90" smooth="yes"/>
      <point x="350" y="56" smooth="yes"/>
      <point x="287" y="56" type="curve" smooth="yes" name="hr01"/>
      <point x="215" y="56" smooth="yes"/>
      <point x="182" y="91" smooth="yes"/>
      <point x="182" y="170" type="curve" smooth="yes"/>
      <point x="182" y="572" type="line"/>
      <point x="96" y="572" type="line"/>
      <point x="96" y="164" type="line" smooth="yes"/>
      <point x="96" y="42" smooth="yes"/>
      <point x="149" y="-14" smooth="yes"/>
      <point x="265" y="-14" type="curve" smooth="yes" name="hr02"/>
      <point x="337" y="-14"/>
      <point x="409" y="20"/>
      <point x="470" y="85" type="curve"/>
    </contour>
  </outline>
</glyph>
<glyph name="w" format="1">
  <advance width="745"/>
  <unicode hex="0077"/>
  <outline>
    <contour>
      <point x="256" y="0" type="line" name="hr00"/>
      <point x="372" y="400" type="line"/>
      <point x="490" y="0" type="line"/>
      <point x="578" y="0" type="line"/>
      <point x="724" y="572" type="line"/>
      <point x="637" y="572" type="line"/>
      <point x="527" y="110" type="line"/>
      <point x="409" y="522" type="line"/>
      <point x="335" y="522" type="line"/>
      <point x="218" y="110" type="line"/>
      <point x="108" y="572" type="line"/>
      <point x="21" y="572" type="line"/>
      <point x="167" y="0" type="line"/>
    </contour>
  </outline>
</glyph>
<glyph name="y" format="1">
  <advance width="543"/>
  <unicode hex="0079"/>
  <outline>
    <contour>
      <point x="222" y="-245" type="line" name="hr00"/>
      <point x="526" y="572" type="line"/>
      <point x="438" y="572" type="line"/>
      <point x="274" y="109" type="line"/>
      <point x="105" y="572" type="line"/>
      <point x="16" y="572" type="line"/>
      <point x="232" y="-4" type="line"/>
      <point x="144" y="-231" type="line"/>
    </contour>
  </outline>
</glyph>
<glyph name="z" format="1">
  <advance width="520"/>
  <unicode hex="007A"/>
  <outline>
    <contour>
      <point x="54" y="506" type="line" name="hr00"/>
      <point x="362" y="506" type="line"/>
      <point x="42" y="58" type="line"/>
      <point x="42" y="0" type="line"/>
      <point x="478" y="0" type="line"/>
      <point x="478" y="66" type="line"/>
      <point x="147" y="66" type="line"/>
      <point x="465" y="514" type="line"/>
      <point x="465" y="572" type="line"/>
      <point x="54" y="572" type="line"/>
    </contour>
  </outline>
</glyph>
<glyph name="asciitilde" format="1">
  <advance width="580"/>
  <unicode hex="007E"/>
  <outline>
    <contour>
      <point x="92" y="284" type="line"/>
      <point x="117" y="269" smooth="yes"/>
      <point x="145" y="262" smooth="yes"/>
      <point x="176" y="262" type="curve" smooth="yes"/>
      <point x="251" y="262" smooth="yes"/>
      <point x="328" y="305" smooth="yes"/>
      <point x="404" y="305" type="curve" smooth="yes" name="hr01"/>
      <point x="434" y="305"/>
      <point x="463" y="298"/>
      <point x="488" y="284" type="curve"/>
      <point x="488" y="352" type="line"/>
      <point x="464" y="364" smooth="yes"/>
      <point x="435" y="371" smooth="yes"/>
      <point x="404" y="371" type="curve" smooth="yes"/>
      <point x="328" y="371" smooth="yes"/>
      <point x="251" y="328" smooth="yes"/>
      <point x="176" y="328" type="curve" smooth="yes" name="hr02"/>
      <point x="142" y="328"/>
      <point x="115" y="336"/>
      <point x="92" y="352" type="curve"/>
    </contour>
  </outline>
</glyph>
<glyph name="currency" format="1">
  <advance width="630"/>
  <unicode hex="00A4"/>
  <outline>
    <contour>
      <point x="98" y="624" type="line" name="hr00"/>
      <point x="56" y="582" type="line"/>
      <point x="147" y="490" type="line"/>
      <point x="126" y="456" smooth="yes"/>
      <point x="115" y="414" smooth="yes"/>
      <point x="115" y="365" type="curve" smooth="yes"/>
      <point x="115" y="315"/>
      <point x="126" y="272"/>
      <point x="146" y="239" type="curve"/>
      <point x="56" y="148" type="line"/>
      <point x="98" y="106" type="line"/>
      <point x="186" y="194" type="line"/>
      <point x="219" y="168" smooth="yes"/>
      <point x="262" y="155" smooth="yes"/>
      <point x="313" y="155" type="curve" smooth="yes"/>
      <point x="365" y="155"/>
      <point x="410" y="167"/>
      <point x="445" y="191" type="curve"/>
      <point x="532" y="106" type="line"/>
      <point x="574" y="148" type="line"/>
      <point x="488" y="234" type="line"/>
      <point x="512" y="268" smooth="yes"/>
      <point x="525" y="313" smooth="yes"/>
      <point x="525" y="365" type="curve" smooth="yes"/>
      <point x="525" y="416"/>
      <point x="512" y="462"/>
      <point x="489" y="497" type="curve"/>
      <point x="574" y="582" type="line"/>
      <point x="532" y="624" type="line"/>
      <point x="447" y="540" type="line"/>
      <point x="415" y="563" smooth="yes"/>
      <point x="374" y="575" smooth="yes"/>
      <point x="326" y="575" type="curve" smooth="yes"/>
      <point x="270" y="575"/>
      <point x="224" y="561"/>
      <point x="188" y="534" type="curve"/>
    </contour>
    <contour>
      <point x="313" y="228" type="curve" smooth="yes"/>
      <point x="237" y="228" smooth="yes"/>
      <point x="192" y="279" smooth="yes"/>
      <point x="192" y="365" type="curve" smooth="yes"/>
      <point x="192" y="452" smooth="yes"/>
      <point x="241" y="502" smooth="yes"/>
      <point x="326" y="502" type="curve" smooth="yes"/>
      <point x="402" y="502" smooth="yes"/>
      <point x="448" y="451" smooth="yes"/>
      <point x="448" y="365" type="curve" smooth="yes"/>
      <point x="448" y="278" smooth="yes"/>
      <point x="399" y="228" smooth="yes"/>
    </contour>
  </outline>
</glyph>
<glyph name="yen" format="1">
  <advance width="630"/>
  <unicode hex="00A5"/>
  <outline>
    <contour>
      <point x="81" y="387" type="line" name="hr00"/>
      <point x="227" y="387" type="line"/>
      <point x="271" y="302" type="line"/>
      <point x="81" y="302" type="line"/>
      <point x="81" y="248" type="line"/>
      <point x="272" y="248" type="line"/>
      <point x="272" y="0" type="line"/>
      <point x="358" y="0" type="line"/>
      <point x="358" y="248" type="line"/>
      <point x="551" y="248" type="line"/>
      <point x="551" y="302" type="line"/>
      <point x="359" y="302" type="line"/>
      <point x="403" y="387" type="line"/>
      <point x="551" y="387" type="line"/>
      <point x="551" y="441" type="line"/>
      <point x="431" y="441" type="line"/>
      <point x="581" y="730" type="line"/>
      <point x="490" y="730" type="line"/>
      <point x="315" y="382" type="line"/>
      <point x="141" y="730" type="line"/>
      <point x="49" y="730" type="line"/>
      <point x="199" y="441" type="line"/>
      <point x="81" y="441" type="line"/>
    </contour>
  </outline>
</glyph>
<glyph name="dieresis" format="1">
  <advance width="324"/>
  <unicode hex="00A8"/>
  <outline>
    <contour>
      <point x="55" y="667" type="curve" name="hr00"/>
      <point x="92" y="667" smooth="yes"/>
      <point x="106" y="683" smooth="yes"/>
      <point x="106" y="723" type="curve" smooth="yes"/>
      <point x="106" y="764" smooth="yes"/>
      <point x="92" y="780" smooth="yes"/>
      <point x="55" y="780" type="curve" smooth="yes"/>
      <point x="20" y="780" smooth="yes"/>
      <point x="6" y="764" smooth="yes"/>
      <point x="6" y="723" type="curve" smooth="yes"/>
      <point x="6" y="683" smooth="yes"/>
      <point x="20" y="667" smooth="yes"/>
    </contour>
    <contour>
      <point x="267" y="667" type="curve"/>
      <point x="304" y="667" smooth="yes"/>
      <point x="318" y="683" smooth="yes"/>
      <point x="318" y="723" type="curve" smooth="yes"/>
      <point x="318" y="764" smooth="yes"/>
      <point x="304" y="780" smooth="yes"/>
      <point x="267" y="780" type="curve" smooth="yes"/>
      <point x="232" y="780" smooth="yes"/>
      <point x="218" y="764" smooth="yes"/>
      <point x="218" y="723" type="curve" smooth="yes"/>
      <point x="218" y="683" smooth="yes"/>
      <point x="232" y="667" smooth="yes"/>
    </contour>
  </outline>
</glyph>
<glyph name="copyright" format="1">
  <advance width="729"/>
  <unicode hex="00A9"/>
  <outline>
    <contour>
      <point x="493" y="652" type="line" name="hr00"/>
      <point x="486" y="729" smooth="yes"/>
      <point x="441" y="769" smooth="yes"/>
      <point x="361" y="769" type="curve" smooth="yes"/>
      <point x="254" y="769" smooth="yes"/>
      <point x="206" y="705" smooth="yes"/>
      <point x="206" y="561" type="curve" smooth="yes"/>
      <point x="206" y="414" smooth="yes"/>
      <point x="252" y="352" smooth="yes"/>
      <point x="362" y="352" type="curve" smooth="yes"/>
      <point x="444" y="352"/>
      <point x="488" y="397"/>
      <point x="494" y="486" type="curve"/>
      <point x="446" y="488" type="line"/>
      <point x="443" y="431" smooth="yes"/>
      <point x="414" y="399" smooth="yes"/>
      <point x="363" y="399" type="curve" smooth="yes"/>
      <point x="292" y="399" smooth="yes"/>
      <point x="264" y="445" smooth="yes"/>
      <point x="264" y="561" type="curve" smooth="yes"/>
      <point x="264" y="673" smooth="yes"/>
      <point x="294" y="723" smooth="yes"/>
      <point x="362" y="723" type="curve" smooth="yes"/>
      <point x="412" y="723"/>
      <point x="439" y="699"/>
      <point x="444" y="649" type="curve"/>
    </contour>
    <contour>
      <point x="65" y="560" type="curve" smooth="yes"/>
      <point x="65" y="366" smooth="yes"/>
      <point x="170" y="261" smooth="yes"/>
      <point x="364" y="261" type="curve" smooth="yes"/>
      <point x="558" y="261" smooth="yes"/>
      <point x="664" y="366" smooth="yes"/>
      <point x="664" y="560" type="curve" smooth="yes"/>
      <point x="664" y="754" smooth="yes"/>
      <point x="558" y="860" smooth="yes"/>
      <point x="364" y="860" type="curve" smooth="yes"/>
      <point x="170" y="860" smooth="yes"/>
      <point x="65" y="754" smooth="yes"/>
    </contour>
    <contour>
      <point x="119" y="560" type="curve" smooth="yes"/>
      <point x="119" y="726" smooth="yes"/>
      <point x="202" y="811" smooth="yes"/>
      <point x="364" y="811" type="curve" smooth="yes"/>
      <point x="526" y="811" smooth="yes"/>
      <point x="610" y="726" smooth="yes"/>
      <point x="610" y="560" type="curve" smooth="yes"/>
      <point x="610" y="395" smooth="yes"/>
      <point x="527" y="310" smooth="yes"/>
      <point x="364" y="310" type="curve" smooth="yes"/>
      <point x="202" y="310" smooth="yes"/>
      <point x="119" y="394" smooth="yes"/>
    </contour>
  </outline>
</glyph>
<glyph name="guillemotleft" format="1">
  <advance width="524"/>
  <unicode hex="00AB"/>
  <outline>
    <contour>
      <point x="251" y="470" type="line" name="hr00"/>
      <point x="199" y="521" type="line"/>
      <point x="28" y="333" type="line"/>
      <point x="28" y="297" type="line"/>
      <point x="199" y="109" type="line"/>
      <point x="251" y="160" type="line"/>
      <point x="129" y="315" type="line"/>
    </contour>
    <contour>
      <point x="470" y="470" type="line"/>
      <point x="418" y="521" type="line"/>
      <point x="247" y="333" type="line"/>
      <point x="247" y="297" type="line"/>
      <point x="418" y="109" type="line"/>
      <point x="470" y="160" type="line"/>
      <point x="348" y="315" type="line"/>
    </contour>
  </outline>
</glyph>
<glyph name="registered" format="1">
  <advance width="729"/>
  <unicode hex="00AE"/>
  <outline>
    <contour>
      <point x="65" y="560" type="curve" smooth="yes" name="hr00"/>
      <point x="65" y="366" smooth="yes"/>
      <point x="170" y="261" smooth="yes"/>
      <point x="364" y="261" type="curve" smooth="yes"/>
      <point x="558" y="261" smooth="yes"/>
      <point x="664" y="366" smooth="yes"/>
      <point x="664" y="560" type="curve" smooth="yes"/>
      <point x="664" y="754" smooth="yes"/>
      <point x="558" y="860" smooth="yes"/>
      <point x="364" y="860" type="curve" smooth="yes"/>
      <point x="170" y="860" smooth="yes"/>
      <point x="65" y="754" smooth="yes"/>
    </contour>
    <contour>
      <point x="119" y="560" type="curve" smooth="yes"/>
      <point x="119" y="726" smooth="yes"/>
      <point x="202" y="811" smooth="yes"/>
      <point x="364" y="811" type="curve" smooth="yes"/>
      <point x="526" y="811" smooth="yes"/>
      <point x="610" y="726" smooth="yes"/>
      <point x="610" y="560" type="curve" smooth="yes"/>
      <point x="610" y="395" smooth="yes"/>
      <point x="527" y="310" smooth="yes"/>
      <point x="364" y="310" type="curve" smooth="yes"/>
      <point x="202" y="310" smooth="yes"/>
      <point x="119" y="394" smooth="yes"/>
    </contour>
    <contour>
      <point x="245" y="762" type="line"/>
      <point x="245" y="360" type="line"/>
      <point x="303" y="360" type="line"/>
      <point x="303" y="523" type="line"/>
      <point x="345" y="523" type="line" smooth="yes"/>
      <point x="371" y="523" smooth="yes"/>
      <point x="385" y="514" smooth="yes"/>
      <point x="395" y="490" type="curve" smooth="yes"/>
      <point x="451" y="360" type="line"/>
      <point x="513" y="360" type="line"/>
      <point x="453" y="496" type="line" smooth="yes"/>
      <point x="446" y="511"/>
      <point x="438" y="522"/>
      <point x="429" y="531" type="curve"/>
      <point x="473" y="543" smooth="yes"/>
      <point x="496" y="582" smooth="yes"/>
      <point x="496" y="643" type="curve" smooth="yes"/>
      <point x="496" y="721" smooth="yes"/>
      <point x="453" y="762" smooth="yes"/>
      <point x="370" y="762" type="curve" smooth="yes"/>
    </contour>
    <contour>
      <point x="303" y="568" type="line"/>
      <point x="303" y="716" type="line"/>
      <point x="369" y="716" type="line" smooth="yes"/>
      <point x="415" y="716" smooth="yes"/>
      <point x="438" y="692" smooth="yes"/>
      <point x="438" y="642" type="curve" smooth="yes"/>
      <point x="438" y="593" smooth="yes"/>
      <point x="415" y="568" smooth="yes"/>
      <point x="369" y="568" type="curve" smooth="yes"/>
    </contour>
  </outline>
</glyph>
<glyph name="macron" format="1">
  <advance width="354"/>
  <unicode hex="00AF"/>
  <outline>
    <contour>
      <point x="48" y="688" type="line" name="hr00"/>
      <point x="306" y="688" type="line"/>
      <point x="306" y="761" type="line"/>
      <point x="48" y="761" type="line"/>
    </contour>
  </outline>
</glyph>
<glyph name="acute" format="1">
  <advance width="310"/>
  <unicode hex="00B4"/>
  <outline>
    <contour>
      <point x="85" y="625" type="line" name="hr00"/>
      <point x="268" y="763" type="line"/>
      <point x="214" y="827" type="line"/>
      <point x="46" y="671" type="line"/>
    </contour>
  </outline>
</glyph>
<glyph name="paragraph" format="1">
  <advance width="495"/>
  <unicode hex="00B6"/>
  <outline>
    <contour>
      <point x="369" y="0" type="line" name="hr00"/>
      <point x="369" y="670" type="line"/>
      <point x="224" y="670" type="line" smooth="yes"/>
      <point x="101" y="670" smooth="yes"/>
      <point x="26" y="596" smooth="yes"/>
      <point x="26" y="475" type="curve" smooth="yes"/>
      <point x="26" y="355" smooth="yes"/>
      <point x="101" y="281" smooth="yes"/>
      <point x="224" y="281" type="curve" smooth="yes"/>
      <point x="281" y="281" type="line"/>
      <point x="281" y="0" type="line"/>
    </contour>
  </outline>
</glyph>
<glyph name="guillemotright" format="1">
  <advance width="524"/>
  <unicode hex="00BB"/>
  <outline>
    <contour>
      <point x="249" y="160" type="line" name="hr00"/>
      <point x="301" y="109" type="line"/>
      <point x="472" y="297" type="line"/>
      <point x="472" y="333" type="line"/>
      <point x="301" y="521" type="line"/>
      <point x="249" y="470" type="line"/>
      <point x="371" y="315" type="line"/>
    </contour>
    <contour>
      <point x="30" y="160" type="line"/>
      <point x="82" y="109" type="line"/>
      <point x="253" y="297" type="line"/>
      <point x="253" y="333" type="line"/>
      <point x="82" y="521" type="line"/>
      <point x="30" y="470" type="line"/>
      <point x="152" y="315" type="line"/>
    </contour>
  </outline>
</glyph>
<glyph name="questiondown" format="1">
  <advance width="480"/>
  <unicode hex="00BF"/>
  <outline>
    <contour>
      <point x="271" y="586" type="curve" smooth="yes" name="hr00"/>
      <point x="232" y="586" smooth="yes"/>
      <point x="216" y="568" smooth="yes"/>
      <point x="216" y="525" type="curve" smooth="yes"/>
      <point x="216" y="482" smooth="yes"/>
      <point x="233" y="463" smooth="yes"/>
      <point x="271" y="463" type="curve" smooth="yes"/>
      <point x="308" y="463" smooth="yes"/>
      <point x="324" y="481" smooth="yes"/>
      <point x="324" y="525" type="curve" smooth="yes"/>
      <point x="324" y="568" smooth="yes"/>
      <point x="309" y="586" smooth="yes"/>
    </contour>
    <contour>
      <point x="380" y="-3" type="line"/>
      <point x="368" y="-66" smooth="yes"/>
      <point x="324" y="-99" smooth="yes"/>
      <point x="254" y="-99" type="curve" smooth="yes"/>
      <point x="175" y="-99" smooth="yes"/>
      <point x="120" y="-40" smooth="yes"/>
      <point x="120" y="45" type="curve" smooth="yes"/>
      <point x="120" y="134"/>
      <point x="177" y="192"/>
      <point x="306" y="235" type="curve"/>
      <point x="298" y="387" type="line"/>
      <point x="243" y="387" type="line"/>
      <point x="232" y="265" type="line"/>
      <point x="103" y="220" smooth="yes"/>
      <point x="36" y="145" smooth="yes"/>
      <point x="36" y="43" type="curve" smooth="yes"/>
      <point x="36" y="-81" smooth="yes"/>
      <point x="124" y="-166" smooth="yes"/>
      <point x="253" y="-166" type="curve" smooth="yes"/>
      <point x="365" y="-166"/>
      <point x="438" y="-111"/>
      <point x="454" y="-13" type="curve"/>
    </contour>
  </outline>
</glyph>
<glyph name="multiply" format="1">
  <advance width="580"/>
  <unicode hex="00D7"/>
  <outline>
    <contour>
      <point x="156" y="137" type="line" name="hr00"/>
      <point x="290" y="270" type="line"/>
      <point x="424" y="137" type="line"/>
      <point x="471" y="184" type="line"/>
      <point x="338" y="318" type="line"/>
      <point x="471" y="452" type="line"/>
      <point x="424" y="499" type="line"/>
      <point x="290" y="366" type="line"/>
      <point x="156" y="499" type="line"/>
      <point x="109" y="452" type="line"/>
      <point x="242" y="318" type="line"/>
      <point x="109" y="184" type="line"/>
    </contour>
  </outline>
</glyph>
<glyph name="Thorn" format="1">
  <advance width="581"/>
  <unicode hex="00DE"/>
  <outline>
    <contour>
      <point x="318" y="137" type="line" smooth="yes" name="hr00"/>
      <point x="464" y="137" smooth="yes"/>
      <point x="539" y="214" smooth="yes"/>
      <point x="539" y="364" type="curve" smooth="yes"/>
      <point x="539" y="515" smooth="yes"/>
      <point x="464" y="592" smooth="yes"/>
      <point x="318" y="592" type="curve" smooth="yes"/>
      <point x="194" y="592" type="line"/>
      <point x="194" y="730" type="line"/>
      <point x="106" y="730" type="line"/>
      <point x="106" y="0" type="line"/>
      <point x="194" y="0" type="line"/>
      <point x="194" y="137" type="line"/>
    </contour>
    <contour>
      <point x="194" y="213" type="line"/>
      <point x="194" y="516" type="line"/>
      <point x="313" y="516" type="line" smooth="yes"/>
      <point x="407" y="516" smooth="yes"/>
      <point x="451" y="467" smooth="yes"/>
      <point x="451" y="364" type="curve" smooth="yes"/>
      <point x="451" y="262" smooth="yes"/>
      <point x="407" y="213" smooth="yes"/>
      <point x="313" y="213" type="curve" smooth="yes"/>
    </contour>
  </outline>
</glyph>
<glyph name="germandbls" format="1">
  <advance width="642"/>
  <unicode hex="00DF"/>
  <outline>
    <contour>
      <point x="616" y="195" type="curve" smooth="yes"/>
      <point x="616" y="302"/>
      <point x="562" y="375"/>
      <point x="471" y="393" type="curve" name="hr01"/>
      <point x="525" y="430" smooth="yes"/>
      <point x="557" y="492" smooth="yes"/>
      <point x="557" y="557" type="curve" smooth="yes"/>
      <point x="557" y="681" smooth="yes"/>
      <point x="477" y="753" smooth="yes"/>
      <point x="337" y="753" type="curve" smooth="yes"/>
      <point x="198" y="753" smooth="yes"/>
      <point x="116" y="679" smooth="yes"/>
      <point x="116" y="553" type="curve" smooth="yes"/>
      <point x="116" y="0" type="line"/>
      <point x="202" y="0" type="line"/>
      <point x="202" y="553" type="line" smooth="yes"/>
      <point x="202" y="636" smooth="yes"/>
      <point x="250" y="682" smooth="yes"/>
      <point x="334" y="682" type="curve" smooth="yes"/>
      <point x="423" y="682" smooth="yes"/>
      <point x="471" y="637" smooth="yes"/>
      <point x="471" y="554" type="curve" smooth="yes"/>
      <point x="471" y="469" smooth="yes"/>
      <point x="426" y="411" smooth="yes"/>
      <point x="361" y="411" type="curve" smooth="yes"/>
      <point x="297" y="411" type="line"/>
      <point x="297" y="346" type="line"/>
      <point x="408" y="346" type="line" smooth="yes"/>
      <point x="491" y="346" smooth="yes"/>
      <point x="530" y="299" smooth="yes"/>
      <point x="530" y="199" type="curve" smooth="yes" name="hr02"/>
      <point x="530" y="109" smooth="yes"/>
      <point x="492" y="57" smooth="yes"/>
      <point x="427" y="57" type="curve" smooth="yes"/>
      <point x="355" y="57"/>
      <point x="326" y="94"/>
      <point x="326" y="183" type="curve"/>
      <point x="254" y="183" type="line"/>
      <point x="254" y="49" smooth="yes"/>
      <point x="309" y="-14" smooth="yes"/>
      <point x="428" y="-14" type="curve" smooth="yes"/>
      <point x="546" y="-14" smooth="yes"/>
      <point x="616" y="64" smooth="yes"/>
    </contour>
  </outline>
</glyph>
<glyph name="eth" format="1">
  <advance width="604"/>
  <unicode hex="00F0"/>
  <outline>
    <contour>
      <point x="289" y="714" type="line" name="hr00"/>
      <point x="368" y="641"/>
      <point x="420" y="554"/>
      <point x="446" y="450" type="curve"/>
      <point x="408" y="487" smooth="yes"/>
      <point x="359" y="506" smooth="yes"/>
      <point x="302" y="506" type="curve" smooth="yes"/>
      <point x="144" y="506" smooth="yes"/>
      <point x="54" y="412" smooth="yes"/>
      <point x="54" y="246" type="curve" smooth="yes"/>
      <point x="54" y="80" smooth="yes"/>
      <point x="143" y="-14" smooth="yes"/>
      <point x="302" y="-14" type="curve" smooth="yes"/>
      <point x="461" y="-14" smooth="yes"/>
      <point x="550" y="80" smooth="yes"/>
      <point x="550" y="246" type="curve" smooth="yes"/>
      <point x="550" y="462"/>
      <point x="470" y="644"/>
      <point x="331" y="764" type="curve"/>
    </contour>
    <contour>
      <point x="302" y="55" type="curve" smooth="yes"/>
      <point x="196" y="55" smooth="yes"/>
      <point x="140" y="122" smooth="yes"/>
      <point x="140" y="246" type="curve" smooth="yes"/>
      <point x="140" y="370" smooth="yes"/>
      <point x="196" y="437" smooth="yes"/>
      <point x="302" y="437" type="curve" smooth="yes"/>
      <point x="407" y="437" smooth="yes"/>
      <point x="464" y="370" smooth="yes"/>
      <point x="464" y="246" type="curve" smooth="yes"/>
      <point x="464" y="122" smooth="yes"/>
      <point x="407" y="55" smooth="yes"/>
    </contour>
    <component  base="eslash" xOffset="246" yOffset="276"/>
  </outline>
</glyph>
<glyph name="dotlessi" format="1">
  <advance width="298"/>
  <unicode hex="0131"/>
  <outline>
    <contour>
      <point x="106" y="572" type="line" name="hr00"/>
      <point x="106" y="0" type="line"/>
      <point x="192" y="0" type="line"/>
      <point x="192" y="572" type="line"/>
    </contour>
  </outline>
</glyph>
<glyph name="eng" format="1">
  <advance width="654"/>
  <unicode hex="014B"/>
  <outline>
    <contour>
      <point x="157" y="572" type="line"/>
      <point x="106" y="572" type="line"/>
      <point x="106" y="0" type="line"/>
      <point x="192" y="0" type="line"/>
      <point x="192" y="449" type="line"/>
      <point x="249" y="493" smooth="yes"/>
      <point x="310" y="516" smooth="yes"/>
      <point x="372" y="516" type="curve" smooth="yes" name="hr01"/>
      <point x="443" y="516" smooth="yes"/>
      <point x="472" y="484" smooth="yes"/>
      <point x="472" y="404" type="curve" smooth="yes"/>
      <point x="472" y="-67" type="line" smooth="yes"/>
      <point x="472" y="-130" smooth="yes"/>
      <point x="447" y="-158" smooth="yes"/>
      <point x="394" y="-158" type="curve" smooth="yes"/>
      <point x="360" y="-158"/>
      <point x="338" y="-152"/>
      <point x="317" y="-143" type="curve"/>
      <point x="295" y="-208" type="line"/>
      <point x="328" y="-221" smooth="yes"/>
      <point x="360" y="-226" smooth="yes"/>
      <point x="400" y="-226" type="curve" smooth="yes"/>
      <point x="482" y="-226" smooth="yes"/>
      <point x="558" y="-193" smooth="yes"/>
      <point x="558" y="-67" type="curve" smooth="yes"/>
      <point x="558" y="406" type="line" smooth="yes"/>
      <point x="558" y="530" smooth="yes"/>
      <point x="505" y="586" smooth="yes"/>
      <point x="389" y="586" type="curve" smooth="yes" name="hr02"/>
      <point x="321" y="586"/>
      <point x="245" y="559"/>
      <point x="181" y="512" type="curve"/>
    </contour>
  </outline>
</glyph>
<glyph name="florin" format="1">
  <advance width="630"/>
  <unicode hex="0192"/>
  <outline>
    <contour>
      <point x="562" y="711" type="line" name="hr00"/>
      <point x="529" y="732" smooth="yes"/>
      <point x="485" y="744" smooth="yes"/>
      <point x="436" y="744" type="curve" smooth="yes"/>
      <point x="306" y="744" smooth="yes"/>
      <point x="246" y="673" smooth="yes"/>
      <point x="246" y="519" type="curve" smooth="yes"/>
      <point x="246" y="374" type="line"/>
      <point x="122" y="374" type="line"/>
      <point x="122" y="314" type="line"/>
      <point x="246" y="314" type="line"/>
      <point x="246" y="-2" type="line" smooth="yes"/>
      <point x="246" y="-105"/>
      <point x="217" y="-142"/>
      <point x="128" y="-142" type="curve"/>
      <point x="133" y="-218" type="line"/>
      <point x="292" y="-218" smooth="yes"/>
      <point x="334" y="-148" smooth="yes"/>
      <point x="334" y="-2" type="curve" smooth="yes"/>
      <point x="334" y="314" type="line"/>
      <point x="504" y="314" type="line"/>
      <point x="504" y="374" type="line"/>
      <point x="334" y="374" type="line"/>
      <point x="334" y="519" type="line" smooth="yes"/>
      <point x="334" y="629" smooth="yes"/>
      <point x="376" y="673" smooth="yes"/>
      <point x="439" y="673" type="curve" smooth="yes"/>
      <point x="476" y="673"/>
      <point x="507" y="665"/>
      <point x="533" y="649" type="curve"/>
    </contour>
  </outline>
</glyph>
<glyph name="dotlessj" format="1">
  <advance width="298"/>
  <unicode hex="0237"/>
  <outline>
    <contour>
      <point x="-71" y="-208" type="line" name="hr00"/>
      <point x="-38" y="-221" smooth="yes"/>
      <point x="-6" y="-226" smooth="yes"/>
      <point x="34" y="-226" type="curve" smooth="yes"/>
      <point x="116" y="-226" smooth="yes"/>
      <point x="192" y="-193" smooth="yes"/>
      <point x="192" y="-67" type="curve" smooth="yes"/>
      <point x="192" y="572" type="line"/>
      <point x="106" y="572" type="line"/>
      <point x="106" y="-67" type="line" smooth="yes"/>
      <point x="106" y="-130" smooth="yes"/>
      <point x="81" y="-158" smooth="yes"/>
      <point x="28" y="-158" type="curve" smooth="yes"/>
      <point x="-6" y="-158"/>
      <point x="-28" y="-152"/>
      <point x="-49" y="-143" type="curve"/>
    </contour>
  </outline>
</glyph>
<glyph name="circumflex" format="1">
  <advance width="397"/>
  <unicode hex="02C6"/>
  <outline>
    <contour>
      <point x="82" y="632" type="line" name="hr00"/>
      <point x="198" y="728" type="line"/>
      <point x="315" y="632" type="line"/>
      <point x="351" y="668" type="line"/>
      <point x="217" y="821" type="line"/>
      <point x="180" y="821" type="line"/>
      <point x="46" y="668" type="line"/>
    </contour>
  </outline>
</glyph>
<glyph name="caron" format="1">
  <advance width="367"/>
  <unicode hex="02C7"/>
  <outline>
    <contour>
      <point x="300" y="819" type="line" name="hr00"/>
      <point x="184" y="723" type="line"/>
      <point x="67" y="819" type="line"/>
      <point x="31" y="783" type="line"/>
      <point x="165" y="630" type="line"/>
      <point x="202" y="630" type="line"/>
      <point x="336" y="783" type="line"/>
    </contour>
  </outline>
</glyph>
<glyph name="tilde" format="1">
  <advance width="406"/>
  <unicode hex="02DC"/>
  <outline>
    <contour>
      <point x="276" y="673" type="curve" smooth="yes"/>
      <point x="316" y="673"/>
      <point x="347" y="697"/>
      <point x="368" y="772" type="curve"/>
      <point x="312" y="790" type="line"/>
      <point x="302" y="760" smooth="yes"/>
      <point x="291" y="746" smooth="yes"/>
      <point x="266" y="746" type="curve" smooth="yes"/>
      <point x="236" y="746" smooth="yes"/>
      <point x="176" y="782" smooth="yes"/>
      <point x="130" y="782" type="curve" smooth="yes" name="hr01"/>
      <point x="90" y="782"/>
      <point x="59" y="758"/>
      <point x="38" y="683" type="curve"/>
      <point x="95" y="665" type="line"/>
      <point x="105" y="695" smooth="yes"/>
      <point x="116" y="709" smooth="yes"/>
      <point x="140" y="709" type="curve" smooth="yes"/>
      <point x="171" y="709" smooth="yes"/>
      <point x="230" y="673" smooth="yes"/>
    </contour>
  </outline>
</glyph>
<glyph name="hungarumlaut" format="1">
  <advance width="543"/>
  <unicode hex="02DD"/>
  <outline>
    <contour>
      <point x="79" y="625" type="line" name="hr00"/>
      <point x="262" y="763" type="line"/>
      <point x="208" y="827" type="line"/>
      <point x="40" y="671" type="line"/>
    </contour>
    <contour>
      <point x="322" y="625" type="line"/>
      <point x="505" y="763" type="line"/>
      <point x="451" y="827" type="line"/>
      <point x="283" y="671" type="line"/>
    </contour>
  </outline>
</glyph>
<glyph name="pi" format="1">
  <advance width="639"/>
  <unicode hex="03C0"/>
  <outline>
    <contour>
      <point x="64" y="513" type="line" name="hr00"/>
      <point x="124" y="513" type="line"/>
      <point x="124" y="0" type="line"/>
      <point x="210" y="0" type="line"/>
      <point x="210" y="513" type="line"/>
      <point x="429" y="513" type="line"/>
      <point x="429" y="0" type="line"/>
      <point x="515" y="0" type="line"/>
      <point x="515" y="513" type="line"/>
      <point x="575" y="513" type="line"/>
      <point x="575" y="572" type="line"/>
      <point x="64" y="572" type="line"/>
    </contour>
  </outline>
</glyph>
<glyph name="endash" format="1">
  <advance width="576"/>
  <unicode hex="2013"/>
  <outline>
    <contour>
      <point x="68" y="284" type="line" name="hr00"/>
      <point x="508" y="284" type="line"/>
      <point x="508" y="352" type="line"/>
      <point x="68" y="352" type="line"/>
    </contour>
  </outline>
</glyph>
<glyph name="emdash" format="1">
  <advance width="909"/>
  <unicode hex="2014"/>
  <outline>
    <contour>
      <point x="68" y="284" type="line" name="hr00"/>
      <point x="841" y="284" type="line"/>
      <point x="841" y="352" type="line"/>
      <point x="68" y="352" type="line"/>
    </contour>
  </outline>
</glyph>
<glyph name="quoteleft" format="1">
  <advance width="281"/>
  <unicode hex="2018"/>
  <outline>
    <contour>
      <point x="180" y="601" type="curve" smooth="yes" name="hr00"/>
      <point x="180" y="632" smooth="yes"/>
      <point x="167" y="652" smooth="yes"/>
      <point x="167" y="674" type="curve" smooth="yes"/>
      <point x="167" y="713"/>
      <point x="185" y="734"/>
      <point x="207" y="753" type="curve"/>
      <point x="181" y="783" type="line"/>
      <point x="166" y="772" smooth="yes"/>
      <point x="74" y="703" smooth="yes"/>
      <point x="74" y="601" type="curve" smooth="yes"/>
      <point x="74" y="571" smooth="yes"/>
      <point x="79" y="538" smooth="yes"/>
      <point x="129" y="538" type="curve" smooth="yes"/>
      <point x="177" y="538" smooth="yes"/>
      <point x="180" y="571" smooth="yes"/>
    </contour>
  </outline>
</glyph>
<glyph name="quotedblleft" format="1">
  <advance width="444"/>
  <unicode hex="201C"/>
  <outline>
    <contour>
      <point x="180" y="601" type="curve" smooth="yes" name="hr00"/>
      <point x="180" y="632" smooth="yes"/>
      <point x="167" y="652" smooth="yes"/>
      <point x="167" y="674" type="curve" smooth="yes"/>
      <point x="167" y="713"/>
      <point x="185" y="733"/>
      <point x="208" y="753" type="curve"/>
      <point x="181" y="783" type="line"/>
      <point x="166" y="772" smooth="yes"/>
      <point x="74" y="703" smooth="yes"/>
      <point x="74" y="601" type="curve" smooth="yes"/>
      <point x="74" y="571" smooth="yes"/>
      <point x="78" y="538" smooth="yes"/>
      <point x="128" y="538" type="curve" smooth="yes"/>
      <point x="176" y="538" smooth="yes"/>
      <point x="180" y="571" smooth="yes"/>
    </contour>
    <contour>
      <point x="343" y="601" type="curve" smooth="yes"/>
      <point x="343" y="632" smooth="yes"/>
      <point x="330" y="652" smooth="yes"/>
      <point x="330" y="674" type="curve" smooth="yes"/>
      <point x="330" y="713"/>
      <point x="348" y="734"/>
      <point x="370" y="753" type="curve"/>
      <point x="344" y="783" type="line"/>
      <point x="329" y="772" smooth="yes"/>
      <point x="237" y="703" smooth="yes"/>
      <point x="237" y="601" type="curve" smooth="yes"/>
      <point x="237" y="571" smooth="yes"/>
      <point x="242" y="538" smooth="yes"/>
      <point x="292" y="538" type="curve" smooth="yes"/>
      <point x="340" y="538" smooth="yes"/>
      <point x="343" y="571" smooth="yes"/>
    </contour>
  </outline>
</glyph>
<glyph name="quotedblright" format="1">
  <advance width="444"/>
  <unicode hex="201D"/>
  <outline>
    <contour>
      <point x="264" y="720" type="curve" smooth="yes" name="hr00"/>
      <point x="264" y="690" smooth="yes"/>
      <point x="277" y="669" smooth="yes"/>
      <point x="277" y="648" type="curve" smooth="yes"/>
      <point x="277" y="608"/>
      <point x="259" y="589"/>
      <point x="236" y="569" type="curve"/>
      <point x="263" y="538" type="line"/>
      <point x="278" y="549" smooth="yes"/>
      <point x="370" y="619" smooth="yes"/>
      <point x="370" y="720" type="curve" smooth="yes"/>
      <point x="370" y="750" smooth="yes"/>
      <point x="366" y="783" smooth="yes"/>
      <point x="316" y="783" type="curve" smooth="yes"/>
      <point x="268" y="783" smooth="yes"/>
      <point x="264" y="750" smooth="yes"/>
    </contour>
    <contour>
      <point x="101" y="720" type="curve" smooth="yes"/>
      <point x="101" y="690" smooth="yes"/>
      <point x="114" y="669" smooth="yes"/>
      <point x="114" y="648" type="curve" smooth="yes"/>
      <point x="114" y="608"/>
      <point x="96" y="588"/>
      <point x="74" y="569" type="curve"/>
      <point x="100" y="538" type="line"/>
      <point x="115" y="549" smooth="yes"/>
      <point x="207" y="619" smooth="yes"/>
      <point x="207" y="720" type="curve" smooth="yes"/>
      <point x="207" y="750" smooth="yes"/>
      <point x="202" y="783" smooth="yes"/>
      <point x="152" y="783" type="curve" smooth="yes"/>
      <point x="104" y="783" smooth="yes"/>
      <point x="101" y="750" smooth="yes"/>
    </contour>
  </outline>
</glyph>
<glyph name="ellipsis" format="1">
  <advance width="692"/>
  <unicode hex="2026"/>
  <outline>
    <contour>
      <point x="113" y="-8" type="curve" smooth="yes" name="hr00"/>
      <point x="165" y="-8" smooth="yes"/>
      <point x="168" y="24" smooth="yes"/>
      <point x="168" y="53" type="curve" smooth="yes"/>
      <point x="168" y="82" smooth="yes"/>
      <point x="165" y="115" smooth="yes"/>
      <point x="113" y="115" type="curve" smooth="yes"/>
      <point x="63" y="115" smooth="yes"/>
      <point x="60" y="82" smooth="yes"/>
      <point x="60" y="53" type="curve" smooth="yes"/>
      <point x="60" y="24" smooth="yes"/>
      <point x="63" y="-8" smooth="yes"/>
    </contour>
    <contour>
      <point x="345" y="-8" type="curve" smooth="yes"/>
      <point x="397" y="-8" smooth="yes"/>
      <point x="400" y="24" smooth="yes"/>
      <point x="400" y="53" type="curve" smooth="yes"/>
      <point x="400" y="82" smooth="yes"/>
      <point x="397" y="115" smooth="yes"/>
      <point x="345" y="115" type="curve" smooth="yes"/>
      <point x="295" y="115" smooth="yes"/>
      <point x="292" y="82" smooth="yes"/>
      <point x="292" y="53" type="curve" smooth="yes"/>
      <point x="292" y="24" smooth="yes"/>
      <point x="295" y="-8" smooth="yes"/>
    </contour>
    <contour>
      <point x="577" y="-8" type="curve" smooth="yes"/>
      <point x="629" y="-8" smooth="yes"/>
      <point x="632" y="24" smooth="yes"/>
      <point x="632" y="53" type="curve" smooth="yes"/>
      <point x="632" y="82" smooth="yes"/>
      <point x="629" y="115" smooth="yes"/>
      <point x="577" y="115" type="curve" smooth="yes"/>
      <point x="527" y="115" smooth="yes"/>
      <point x="524" y="82" smooth="yes"/>
      <point x="524" y="53" type="curve" smooth="yes"/>
      <point x="524" y="24" smooth="yes"/>
      <point x="527" y="-8" smooth="yes"/>
    </contour>
  </outline>
</glyph>
<glyph name="oneinferior" format="1">
  <advance width="391"/>
  <unicode hex="2081"/>
  <outline>
    <contour>
      <point x="86" y="222" type="line" name="hr00"/>
      <point x="168" y="222" type="line"/>
      <point x="168" y="-107" type="line"/>
      <point x="247" y="-107" type="line"/>
      <point x="247" y="298" type="line"/>
      <point x="185" y="298" type="line"/>
      <point x="164" y="283"/>
      <point x="127" y="272"/>
      <point x="86" y="268" type="curve"/>
    </contour>
  </outline>
</glyph>
<glyph name="twoinferior" format="1">
  <advance width="391"/>
  <unicode hex="2082"/>
  <outline>
    <contour>
      <point x="125" y="190" type="line" name="hr00"/>
      <point x="129" y="226" smooth="yes"/>
      <point x="146" y="246" smooth="yes"/>
      <point x="190" y="246" type="curve" smooth="yes"/>
      <point x="232" y="246" smooth="yes"/>
      <point x="251" y="223" smooth="yes"/>
      <point x="251" y="192" type="curve" smooth="yes"/>
      <point x="251" y="161" smooth="yes"/>
      <point x="231" y="133" smooth="yes"/>
      <point x="200" y="99" type="curve" smooth="yes"/>
      <point x="53" y="-60" type="line"/>
      <point x="53" y="-107" type="line"/>
      <point x="334" y="-107" type="line"/>
      <point x="334" y="-46" type="line"/>
      <point x="157" y="-46" type="line"/>
      <point x="262" y="67" type="line" smooth="yes"/>
      <point x="300" y="109" smooth="yes"/>
      <point x="327" y="147" smooth="yes"/>
      <point x="327" y="193" type="curve" smooth="yes"/>
      <point x="327" y="260" smooth="yes"/>
      <point x="284" y="307" smooth="yes"/>
      <point x="196" y="307" type="curve" smooth="yes"/>
      <point x="108" y="307"/>
      <point x="65" y="268"/>
      <point x="58" y="197" type="curve"/>
    </contour>
  </outline>
</glyph>
<glyph name="threeinferior" format="1">
  <advance width="391"/>
  <unicode hex="2083"/>
  <outline>
    <contour>
      <point x="53" y="-5" type="line" name="hr00"/>
      <point x="60" y="-80" smooth="yes"/>
      <point x="108" y="-115" smooth="yes"/>
      <point x="196" y="-115" type="curve" smooth="yes"/>
      <point x="283" y="-115" smooth="yes"/>
      <point x="340" y="-68" smooth="yes"/>
      <point x="340" y="-2" type="curve" smooth="yes"/>
      <point x="340" y="51"/>
      <point x="311" y="81"/>
      <point x="269" y="95" type="curve"/>
      <point x="307" y="111" smooth="yes"/>
      <point x="335" y="140" smooth="yes"/>
      <point x="335" y="185" type="curve" smooth="yes"/>
      <point x="335" y="257" smooth="yes"/>
      <point x="288" y="307" smooth="yes"/>
      <point x="197" y="307" type="curve" smooth="yes"/>
      <point x="114" y="307"/>
      <point x="66" y="271"/>
      <point x="61" y="198" type="curve"/>
      <point x="128" y="189" type="line"/>
      <point x="132" y="225" smooth="yes"/>
      <point x="158" y="247" smooth="yes"/>
      <point x="195" y="247" type="curve" smooth="yes"/>
      <point x="239" y="247" smooth="yes"/>
      <point x="259" y="222" smooth="yes"/>
      <point x="259" y="185" type="curve" smooth="yes"/>
      <point x="259" y="150" smooth="yes"/>
      <point x="237" y="117" smooth="yes"/>
      <point x="186" y="117" type="curve" smooth="yes"/>
      <point x="163" y="117" type="line"/>
      <point x="163" y="70" type="line"/>
      <point x="185" y="70" type="line" smooth="yes"/>
      <point x="240" y="70" smooth="yes"/>
      <point x="263" y="39" smooth="yes"/>
      <point x="263" y="2" type="curve" smooth="yes"/>
      <point x="263" y="-35" smooth="yes"/>
      <point x="239" y="-57" smooth="yes"/>
      <point x="191" y="-57" type="curve" smooth="yes"/>
      <point x="147" y="-57"/>
      <point x="122" y="-36"/>
      <point x="119" y="4" type="curve"/>
    </contour>
  </outline>
</glyph>
<glyph name="fourinferior" format="1">
  <advance width="391"/>
  <unicode hex="2084"/>
  <outline>
    <contour>
      <point x="296" y="-107" type="line" name="hr00"/>
      <point x="296" y="-28" type="line"/>
      <point x="339" y="-28" type="line"/>
      <point x="339" y="32" type="line"/>
      <point x="296" y="32" type="line"/>
      <point x="296" y="298" type="line"/>
      <point x="181" y="298" type="line"/>
      <point x="26" y="28" type="line"/>
      <point x="26" y="-28" type="line"/>
      <point x="224" y="-28" type="line"/>
      <point x="224" y="-107" type="line"/>
    </contour>
    <contour>
      <point x="102" y="32" type="line"/>
      <point x="224" y="247" type="line"/>
      <point x="224" y="32" type="line"/>
    </contour>
  </outline>
</glyph>
<glyph name="fiveinferior" format="1">
  <advance width="391"/>
  <unicode hex="2085"/>
  <outline>
    <contour>
      <point x="61" y="8" type="line" name="hr00"/>
      <point x="66" y="-67" smooth="yes"/>
      <point x="100" y="-115" smooth="yes"/>
      <point x="196" y="-115" type="curve" smooth="yes"/>
      <point x="307" y="-115" smooth="yes"/>
      <point x="343" y="-60" smooth="yes"/>
      <point x="343" y="12" type="curve" smooth="yes"/>
      <point x="343" y="101" smooth="yes"/>
      <point x="285" y="142" smooth="yes"/>
      <point x="165" y="142" type="curve" smooth="yes"/>
      <point x="141" y="142" type="line"/>
      <point x="147" y="237" type="line"/>
      <point x="317" y="237" type="line"/>
      <point x="317" y="298" type="line"/>
      <point x="81" y="298" type="line"/>
      <point x="68" y="90" type="line"/>
      <point x="136" y="90" type="line" smooth="yes"/>
      <point x="237" y="90" smooth="yes"/>
      <point x="264" y="60" smooth="yes"/>
      <point x="264" y="15" type="curve" smooth="yes"/>
      <point x="264" y="-25" smooth="yes"/>
      <point x="249" y="-56" smooth="yes"/>
      <point x="196" y="-56" type="curve" smooth="yes"/>
      <point x="145" y="-56"/>
      <point x="128" y="-28"/>
      <point x="126" y="16" type="curve"/>
    </contour>
  </outline>
</glyph>
<glyph name="seveninferior" format="1">
  <advance width="391"/>
  <unicode hex="2087"/>
  <outline>
    <contour>
      <point x="188" y="-107" type="line" name="hr00"/>
      <point x="341" y="246" type="line"/>
      <point x="341" y="298" type="line"/>
      <point x="61" y="298" type="line"/>
      <point x="61" y="237" type="line"/>
      <point x="257" y="237" type="line"/>
      <point x="104" y="-107" type="line"/>
    </contour>
  </outline>
</glyph>
<glyph name="eightinferior" format="1">
  <advance width="391"/>
  <unicode hex="2088"/>
  <outline>
    <contour>
      <point x="47" y="-1" type="curve" smooth="yes" name="hr00"/>
      <point x="47" y="-66" smooth="yes"/>
      <point x="102" y="-115" smooth="yes"/>
      <point x="195" y="-115" type="curve" smooth="yes"/>
      <point x="287" y="-115" smooth="yes"/>
      <point x="343" y="-66" smooth="yes"/>
      <point x="343" y="-1" type="curve" smooth="yes"/>
      <point x="343" y="47"/>
      <point x="323" y="79"/>
      <point x="284" y="98" type="curve"/>
      <point x="319" y="117" smooth="yes"/>
      <point x="338" y="147" smooth="yes"/>
      <point x="338" y="189" type="curve" smooth="yes"/>
      <point x="338" y="254" smooth="yes"/>
      <point x="292" y="307" smooth="yes"/>
      <point x="195" y="307" type="curve" smooth="yes"/>
      <point x="98" y="307" smooth="yes"/>
      <point x="52" y="254" smooth="yes"/>
      <point x="52" y="189" type="curve" smooth="yes"/>
      <point x="52" y="145"/>
      <point x="69" y="114"/>
      <point x="105" y="94" type="curve"/>
      <point x="67" y="75" smooth="yes"/>
      <point x="47" y="45" smooth="yes"/>
    </contour>
    <contour>
      <point x="212" y="68" type="line" smooth="yes"/>
      <point x="254" y="62" smooth="yes"/>
      <point x="266" y="36" smooth="yes"/>
      <point x="266" y="1" type="curve" smooth="yes"/>
      <point x="266" y="-32" smooth="yes"/>
      <point x="243" y="-58" smooth="yes"/>
      <point x="194" y="-58" type="curve" smooth="yes"/>
      <point x="146" y="-58" smooth="yes"/>
      <point x="124" y="-32" smooth="yes"/>
      <point x="124" y="1" type="curve" smooth="yes"/>
      <point x="124" y="38"/>
      <point x="140" y="63"/>
      <point x="176" y="73" type="curve"/>
    </contour>
    <contour>
      <point x="129" y="183" type="curve" smooth="yes"/>
      <point x="129" y="219" smooth="yes"/>
      <point x="148" y="249" smooth="yes"/>
      <point x="195" y="249" type="curve" smooth="yes"/>
      <point x="243" y="249" smooth="yes"/>
      <point x="261" y="219" smooth="yes"/>
      <point x="261" y="183" type="curve" smooth="yes"/>
      <point x="261" y="152"/>
      <point x="246" y="127"/>
      <point x="214" y="118" type="curve"/>
      <point x="184" y="124" type="line" smooth="yes"/>
      <point x="142" y="132" smooth="yes"/>
      <point x="129" y="150" smooth="yes"/>
    </contour>
  </outline>
</glyph>
<glyph name="nineinferior" format="1">
  <advance width="397"/>
  <unicode hex="2089"/>
  <outline>
    <contour>
      <point x="49" y="-1" type="line" name="hr00"/>
      <point x="53" y="-76" smooth="yes"/>
      <point x="102" y="-115" smooth="yes"/>
      <point x="188" y="-115" type="curve" smooth="yes"/>
      <point x="312" y="-115" smooth="yes"/>
      <point x="344" y="-31" smooth="yes"/>
      <point x="344" y="113" type="curve" smooth="yes"/>
      <point x="344" y="230" smooth="yes"/>
      <point x="309" y="307" smooth="yes"/>
      <point x="197" y="307" type="curve" smooth="yes"/>
      <point x="98" y="307" smooth="yes"/>
      <point x="45" y="249" smooth="yes"/>
      <point x="45" y="174" type="curve" smooth="yes"/>
      <point x="45" y="111" smooth="yes"/>
      <point x="78" y="54" smooth="yes"/>
      <point x="180" y="54" type="curve" smooth="yes"/>
      <point x="207" y="54"/>
      <point x="233" y="56"/>
      <point x="263" y="63" type="curve"/>
      <point x="259" y="-17" smooth="yes"/>
      <point x="240" y="-54" smooth="yes"/>
      <point x="187" y="-54" type="curve" smooth="yes"/>
      <point x="142" y="-54"/>
      <point x="119" y="-33"/>
      <point x="118" y="5" type="curve"/>
    </contour>
    <contour>
      <point x="199" y="113" type="curve" smooth="yes"/>
      <point x="140" y="113" smooth="yes"/>
      <point x="123" y="148" smooth="yes"/>
      <point x="123" y="176" type="curve" smooth="yes"/>
      <point x="123" y="217" smooth="yes"/>
      <point x="145" y="245" smooth="yes"/>
      <point x="195" y="245" type="curve" smooth="yes"/>
      <point x="247" y="245"/>
      <point x="262" y="205"/>
      <point x="264" y="121" type="curve"/>
      <point x="241" y="115" smooth="yes"/>
      <point x="222" y="113" smooth="yes"/>
    </contour>
  </outline>
</glyph>
<glyph name="product" format="1">
  <advance width="747"/>
  <unicode hex="220F"/>
  <outline>
    <contour>
      <point x="72" y="670" type="line" name="hr00"/>
      <point x="137" y="670" type="line"/>
      <point x="137" y="-190" type="line"/>
      <point x="223" y="-190" type="line"/>
      <point x="223" y="670" type="line"/>
      <point x="524" y="670" type="line"/>
      <point x="524" y="-190" type="line"/>
      <point x="610" y="-190" type="line"/>
      <point x="610" y="670" type="line"/>
      <point x="675" y="670" type="line"/>
      <point x="675" y="730" type="line"/>
      <point x="72" y="730" type="line"/>
    </contour>
  </outline>
</glyph>
<glyph name="summation" format="1">
  <advance width="601"/>
  <unicode hex="2211"/>
  <outline>
    <contour>
      <point x="51" y="670" type="line" name="hr00"/>
      <point x="308" y="271" type="line"/>
      <point x="51" y="-129" type="line"/>
      <point x="51" y="-190" type="line"/>
      <point x="561" y="-190" type="line"/>
      <point x="561" y="-129" type="line"/>
      <point x="146" y="-129" type="line"/>
      <point x="400" y="271" type="line"/>
      <point x="143" y="670" type="line"/>
      <point x="561" y="670" type="line"/>
      <point x="561" y="730" type="line"/>
      <point x="51" y="730" type="line"/>
    </contour>
  </outline>
</glyph>
<glyph name="minus" format="1">
  <advance width="580"/>
  <unicode hex="2212"/>
  <outline>
    <contour>
      <point x="92" y="284" type="line" name="hr00"/>
      <point x="488" y="284" type="line"/>
      <point x="488" y="352" type="line"/>
      <point x="92" y="352" type="line"/>
    </contour>
  </outline>
</glyph>
<glyph name="radical" format="1">
  <advance width="553"/>
  <unicode hex="221A"/>
  <outline>
    <contour>
      <point x="260" y="0" type="line" name="hr00"/>
      <point x="468" y="671" type="line"/>
      <point x="605" y="671" type="line"/>
      <point x="605" y="730" type="line"/>
      <point x="400" y="730" type="line"/>
      <point x="209" y="103" type="line"/>
      <point x="85" y="437" type="line"/>
      <point x="-2" y="437" type="line"/>
      <point x="166" y="0" type="line"/>
    </contour>
  </outline>
</glyph>
<glyph name="infinity" format="1">
  <advance width="629"/>
  <unicode hex="221E"/>
  <outline>
    <contour>
      <point x="191" y="145" type="curve" name="hr00"/>
      <point x="256" y="145"/>
      <point x="294" y="164"/>
      <point x="317" y="210" type="curve"/>
      <point x="339" y="165" smooth="yes"/>
      <point x="377" y="145" smooth="yes"/>
      <point x="438" y="145" type="curve" smooth="yes"/>
      <point x="546" y="145" smooth="yes"/>
      <point x="593" y="197" smooth="yes"/>
      <point x="593" y="318" type="curve" smooth="yes"/>
      <point x="593" y="440" smooth="yes"/>
      <point x="546" y="492" smooth="yes"/>
      <point x="438" y="492" type="curve" smooth="yes"/>
      <point x="372" y="492"/>
      <point x="334" y="472"/>
      <point x="312" y="426" type="curve"/>
      <point x="288" y="472" smooth="yes"/>
      <point x="251" y="492" smooth="yes"/>
      <point x="191" y="492" type="curve" smooth="yes"/>
      <point x="83" y="492" smooth="yes"/>
      <point x="36" y="440" smooth="yes"/>
      <point x="36" y="318" type="curve" smooth="yes"/>
      <point x="36" y="197" smooth="yes"/>
      <point x="83" y="145" smooth="yes"/>
    </contour>
    <contour>
      <point x="196" y="216" type="curve"/>
      <point x="130" y="216" smooth="yes"/>
      <point x="102" y="247" smooth="yes"/>
      <point x="102" y="318" type="curve" smooth="yes"/>
      <point x="102" y="390" smooth="yes"/>
      <point x="130" y="421" smooth="yes"/>
      <point x="196" y="421" type="curve" smooth="yes"/>
      <point x="244" y="421"/>
      <point x="276" y="394"/>
      <point x="289" y="343" type="curve"/>
      <point x="281" y="294" type="line" smooth="yes"/>
      <point x="272" y="237" smooth="yes"/>
      <point x="247" y="216" smooth="yes"/>
    </contour>
    <contour>
      <point x="347" y="338" type="line" smooth="yes"/>
      <point x="356" y="398" smooth="yes"/>
      <point x="380" y="421" smooth="yes"/>
      <point x="433" y="421" type="curve" smooth="yes"/>
      <point x="499" y="421" smooth="yes"/>
      <point x="527" y="390" smooth="yes"/>
      <point x="527" y="318" type="curve" smooth="yes"/>
      <point x="527" y="247" smooth="yes"/>
      <point x="499" y="216" smooth="yes"/>
      <point x="433" y="216" type="curve" smooth="yes"/>
      <point x="384" y="216"/>
      <point x="352" y="243"/>
      <point x="340" y="293" type="curve"/>
    </contour>
  </outline>
</glyph>
<glyph name="integral" format="1">
  <advance width="488"/>
  <unicode hex="222B"/>
  <outline>
    <contour>
      <point x="96" y="-261" type="curve" name="hr00"/>
      <point x="227" y="-261" smooth="yes"/>
      <point x="287" y="-190" smooth="yes"/>
      <point x="287" y="-37" type="curve" smooth="yes"/>
      <point x="287" y="519" type="line" smooth="yes"/>
      <point x="287" y="620" smooth="yes"/>
      <point x="324" y="673" smooth="yes"/>
      <point x="393" y="673" type="curve" smooth="yes"/>
      <point x="430" y="673"/>
      <point x="460" y="665"/>
      <point x="488" y="649" type="curve"/>
      <point x="516" y="711" type="line"/>
      <point x="483" y="732" smooth="yes"/>
      <point x="438" y="744" smooth="yes"/>
      <point x="391" y="744" type="curve" smooth="yes"/>
      <point x="260" y="744" smooth="yes"/>
      <point x="199" y="673" smooth="yes"/>
      <point x="199" y="519" type="curve" smooth="yes"/>
      <point x="199" y="-37" type="line" smooth="yes"/>
      <point x="199" y="-138" smooth="yes"/>
      <point x="163" y="-190" smooth="yes"/>
      <point x="93" y="-190" type="curve" smooth="yes"/>
      <point x="55" y="-190"/>
      <point x="25" y="-182"/>
      <point x="-1" y="-166" type="curve"/>
      <point x="-29" y="-228" type="line"/>
      <point x="3" y="-249" smooth="yes"/>
      <point x="48" y="-261" smooth="yes"/>
    </contour>
  </outline>
</glyph>
<glyph name="breve.case" format="1">
  <advance width="421"/>
  <outline>
    <contour>
      <point x="278" y="941" type="line" name="hr00"/>
      <point x="278" y="903" smooth="yes"/>
      <point x="274" y="868" smooth="yes"/>
      <point x="210" y="868" type="curve" smooth="yes"/>
      <point x="146" y="868"/>
      <point x="142" y="903"/>
      <point x="142" y="941" type="curve"/>
      <point x="82" y="941" type="line"/>
      <point x="82" y="870" smooth="yes"/>
      <point x="95" y="802" smooth="yes"/>
      <point x="210" y="802" type="curve" smooth="yes"/>
      <point x="326" y="802"/>
      <point x="339" y="870"/>
      <point x="339" y="941" type="curve"/>
    </contour>
  </outline>
</glyph>
<glyph name="caron.case" format="1">
  <advance width="367"/>
  <outline>
    <contour>
      <point x="300" y="979" type="line" name="hr00"/>
      <point x="184" y="883" type="line"/>
      <point x="67" y="979" type="line"/>
      <point x="31" y="943" type="line"/>
      <point x="165" y="790" type="line"/>
      <point x="202" y="790" type="line"/>
      <point x="336" y="943" type="line"/>
    </contour>
  </outline>
</glyph>
<glyph name="commaaccent" format="1">
  <advance width="290"/>
  <outline>
    <contour>
      <point x="105" y="-109" type="curve" smooth="yes" name="hr00"/>
      <point x="105" y="-137" smooth="yes"/>
      <point x="119" y="-158" smooth="yes"/>
      <point x="119" y="-180" type="curve" smooth="yes"/>
      <point x="119" y="-220"/>
      <point x="100" y="-239"/>
      <point x="79" y="-259" type="curve"/>
      <point x="105" y="-289" type="line"/>
      <point x="119" y="-278" smooth="yes"/>
      <point x="211" y="-209" smooth="yes"/>
      <point x="211" y="-109" type="curve" smooth="yes"/>
      <point x="211" y="-81" smooth="yes"/>
      <point x="208" y="-50" smooth="yes"/>
      <point x="157" y="-50" type="curve" smooth="yes"/>
      <point x="109" y="-50" smooth="yes"/>
      <point x="105" y="-81" smooth="yes"/>
    </contour>
  </outline>
</glyph>
<glyph name="dieresis.case" format="1">
  <advance width="324"/>
  <outline>
    <contour>
      <point x="55" y="827" type="curve" name="hr00"/>
      <point x="104" y="827" smooth="yes"/>
      <point x="106" y="856" smooth="yes"/>
      <point x="106" y="883" type="curve" smooth="yes"/>
      <point x="106" y="910" smooth="yes"/>
      <point x="104" y="940" smooth="yes"/>
      <point x="55" y="940" type="curve" smooth="yes"/>
      <point x="8" y="940" smooth="yes"/>
      <point x="6" y="910" smooth="yes"/>
      <point x="6" y="883" type="curve" smooth="yes"/>
      <point x="6" y="856" smooth="yes"/>
      <point x="8" y="827" smooth="yes"/>
    </contour>
    <contour>
      <point x="267" y="827" type="curve"/>
      <point x="316" y="827" smooth="yes"/>
      <point x="318" y="856" smooth="yes"/>
      <point x="318" y="883" type="curve" smooth="yes"/>
      <point x="318" y="910" smooth="yes"/>
      <point x="316" y="940" smooth="yes"/>
      <point x="267" y="940" type="curve" smooth="yes"/>
      <point x="220" y="940" smooth="yes"/>
      <point x="218" y="910" smooth="yes"/>
      <point x="218" y="883" type="curve" smooth="yes"/>
      <point x="218" y="856" smooth="yes"/>
      <point x="220" y="827" smooth="yes"/>
    </contour>
  </outline>
</glyph>
<glyph name="dotaccent.case" format="1">
  <advance width="270"/>
  <outline>
    <contour>
      <point x="142" y="814" type="curve" name="hr00"/>
      <point x="198" y="814" smooth="yes"/>
      <point x="201" y="852" smooth="yes"/>
      <point x="201" y="885" type="curve" smooth="yes"/>
      <point x="201" y="919" smooth="yes"/>
      <point x="198" y="957" smooth="yes"/>
      <point x="142" y="957" type="curve" smooth="yes"/>
      <point x="88" y="957" smooth="yes"/>
      <point x="85" y="919" smooth="yes"/>
      <point x="85" y="885" type="curve" smooth="yes"/>
      <point x="85" y="852" smooth="yes"/>
      <point x="88" y="814" smooth="yes"/>
    </contour>
  </outline>
</glyph>
<glyph name="eslash" format="1">
  <advance width="306"/>
  <outline>
    <contour>
      <point x="24" y="296" type="line" name="hr00"/>
      <point x="282" y="400" type="line"/>
      <point x="282" y="463" type="line"/>
      <point x="24" y="359" type="line"/>
    </contour>
  </outline>
</glyph>
<glyph name="hungarumlaut.case" format="1">
  <advance width="543"/>
  <outline>
    <contour>
      <point x="79" y="785" type="line" name="hr00"/>
      <point x="262" y="923" type="line"/>
      <point x="208" y="987" type="line"/>
      <point x="40" y="831" type="line"/>
    </contour>
    <contour>
      <point x="322" y="785" type="line"/>
      <point x="505" y="923" type="line"/>
      <point x="451" y="987" type="line"/>
      <point x="283" y="831" type="line"/>
    </contour>
  </outline>
</glyph>
<glyph name="ringacute" format="1">
  <advance width="270"/>
  <outline>
    <contour>
      <point x="134" y="621" type="curve" smooth="yes" name="hr00"/>
      <point x="223" y="621" smooth="yes"/>
      <point x="238" y="681" smooth="yes"/>
      <point x="238" y="725" type="curve" smooth="yes"/>
      <point x="238" y="737"/>
      <point x="236" y="751"/>
      <point x="233" y="764" type="curve"/>
      <point x="338" y="817" type="line"/>
      <point x="297" y="888" type="line"/>
      <point x="195" y="816" type="line"/>
      <point x="180" y="825" smooth="yes"/>
      <point x="160" y="830" smooth="yes"/>
      <point x="134" y="830" type="curve" smooth="yes"/>
      <point x="48" y="830" smooth="yes"/>
      <point x="32" y="769" smooth="yes"/>
      <point x="32" y="725" type="curve" smooth="yes"/>
      <point x="32" y="681" smooth="yes"/>
      <point x="48" y="621" smooth="yes"/>
    </contour>
    <contour>
      <point x="134" y="668" type="curve" smooth="yes"/>
      <point x="96" y="668" smooth="yes"/>
      <point x="90" y="702" smooth="yes"/>
      <point x="90" y="725" type="curve" smooth="yes"/>
      <point x="90" y="749" smooth="yes"/>
      <point x="96" y="782" smooth="yes"/>
      <point x="134" y="782" type="curve" smooth="yes"/>
      <point x="175" y="782" smooth="yes"/>
      <point x="181" y="749" smooth="yes"/>
      <point x="181" y="725" type="curve" smooth="yes"/>
      <point x="181" y="702" smooth="yes"/>
      <point x="175" y="668" smooth="yes"/>
    </contour>
  </outline>
</glyph>
